<?xml version="1.0" encoding="utf-8"?>
<!-- Generator: Adobe Illustrator 28.0.0, SVG Export Plug-In . SVG Version: 6.00 Build 0)  -->
<svg version="1.1" id="Шар_1" xmlns="http://www.w3.org/2000/svg" xmlns:xlink="http://www.w3.org/1999/xlink" x="0px" y="0px"
	 viewBox="0 0 697 418" style="enable-background:new 0 0 697 418;" xml:space="preserve">
<style type="text/css">
	.st0{fill:#7A40CC;}
	.st1{fill:#FFFFFF;}
	.st2{fill:#8E58CC;}
</style>
<path d="M178.2,418.5c2.4-0.8,5.2-0.6,7.7-0.9l12.4-1.3l0.6,0.3l0,1.9H178.2z"/>
<path d="M564.6,13.5l0.3-0.1c0.7-0.3,1.4-0.2,2.1,0.1c2.3,0.8,3.7,2.7,4.7,4.9c0.8,1.7,2.2,5.1,1.6,6.8l-0.8,0.4
	c-0.3,0-0.6,0-0.8-0.1c-0.2-0.1-0.5-1.3-0.6-1.5c-0.9-2.2-1.3-4.8-2.9-6.7c-0.9-1.1-2.4-1.7-3.6-2.4L564.6,13.5z"/>
<path d="M278.8,3.3c1.1,0,1.8-0.1,2.7,0.5l0.2,1.3c-0.1,0.2-0.2,0.5-0.4,0.6c-0.1,0.1-1.7,0-1.9,0c-1.2,0.1-2.3,0.3-3.4,0.7
	c-4.4,1.6-6.8,4.2-8.8,8.3l-0.5,1l-0.6-0.1c-0.3-0.4-0.5-0.8-0.6-1.3c-0.3-1.5,0.5-2.9,1.4-4.1C269.5,6.2,274.2,4.2,278.8,3.3z"/>
<path d="M550.2,16.8c1.9-0.6,4,0.3,5.7,1.2c4.2,2.1,6.9,5.6,8.3,10c0.6,2.1,2.5,8.4,1.4,10.4l-1.3,0.2c-1.2-1.1-1.7-7.6-2.4-9.7
	c-0.5-1.7-1.4-3.3-2.4-4.8c-2-2.8-5.3-4.8-8.7-5.3c-0.5-0.1-0.6-0.3-1-0.6L550.2,16.8z"/>
<path d="M201.1,408.2c1-0.1,1.7-0.3,2.6,0.2l0.1,1.1c-0.2,0.2-0.2,0.5-0.5,0.6c-0.5,0.3-2.3,0.3-2.9,0.4l-13.9,1.7l-26.7,4.1
	c-1.1,0.1-1.6,0.3-2.7-0.1c0-0.5-0.2-1,0.2-1.4c1.3-1.5,7.4-1.7,9.4-2L201.1,408.2z"/>
<path d="M292.2,12.3c3.8,0.2,6.4,1.2,9.4,3.6c0.2,0.8,0.3,0.8-0.1,1.7c-1.6,0.3-4.1-1.8-5.8-2.4c-2-0.7-4.8-0.7-6.7,0.2l-0.2,0.1
	l-0.5,0.3c-7.3,3.5-11.2,11.7-13.7,18.9c-1,2.9-1.5,6.2-2.7,9l-0.8,0.2l-0.7-0.5c-0.1-0.3-0.1-0.5-0.2-0.8c-0.2-1.9,0.7-4.1,1.2-5.9
	c1.6-5.3,3.5-11.1,7-15.5C282,16.6,286.2,13,292.2,12.3z"/>
<path d="M291.8,27.5c12.3-0.3,22.7,4.5,34.6,6.1l64.7,6.7l14.5,2.2l15.9,2.2l19.1,3.7L479,53l6.8,0.9c1.3,0.2,3,0.7,4.3,0.1l0.2-0.1
	c0.3,0.3,0.6,0.5,0.9,0.6c2.6,1,7,0.9,9.9,1.1c0.6,0,3.2,0.4,3.5,0.2c0.3-0.2,1-1.6,1.3-2l4.1-5.7c5.2-6.9,12.3-14.2,20.1-18.1
	c4.3-2.1,9.7-3.2,14.4-1.6c4.4,1.5,7.4,5.2,9.3,9.3c4.4,9.4,1.5,21.6-2,31c5.3,1.7,10.8,2.8,16.2,3.9l27.6,4.9l25.7,3.2
	c8.8,1.1,18,2,26.5,4.6c3.7,1.1,7.8,2.7,10.8,5.3c2.5,2.1,4,5.8,5.4,8.7c3.3,6.4,5.8,12.9,8.4,19.6c1.9,4.8,3.7,9,4.4,14.2
	c1,8.2,0,16.5-0.3,24.7l-0.3,27.7l-0.5,18.6c0,2.3,1.3,4.5,1.5,6.9c0.1,2-0.4,4.3-0.6,6.3c-0.4,3.3-0.2,9.7-2.4,12.1
	c-0.3,0-0.7,0-0.9,0.1c-1.3,0.5-1.3,4.5-1.4,5.8l-4,31.7c-0.6,3.4-1.1,7.8-2.6,10.8c-1.5,3-3.9,4.5-6.9,5.6
	c-4.2,1.4-10.3,0.2-14.7-0.3l-23.9-3.1l-23.6-4.5l-20.2-2.7l-17.6-2.8l-30.3-3.2l-37.8-4c-0.5,0.6-1.1,1.1-1.7,1.5
	c-3.3,2.2-20.2-1.6-24.1-2.9c-1.9-0.6-3.7-1.3-5.5-2.1c-0.4-0.2-1.8-1.1-2-1.1c-0.3,0-0.7,0.6-1,0.6c-1.2,0.2-4.1-1.4-5.3-1.7
	c-5.2-1.6-10.8-2.9-16.2-3.9l7.5,46.1c1.9,9.3,5.5,18,7.6,27.3c3,12.9,3.6,26.1,4.6,39.2c0.2,2.4,0.8,7.8-0.9,9.6l-0.3,0.3
	c-2.4,2.3-6.8,3.3-10,4.3c-7.4,2-16,1.1-23.6,1l-29.8,0L286,387.4l-38.3,4.3l-33.6,5.9l-31,6.3c-16.5,2.6-33.3,3.5-49.9,5.3
	c-8.6,0.9-17.2,2.3-25.8,2.5c-2.5,0.1-5.4,0.3-7.9-0.1c-1.3-0.2-2.5-0.6-3.6-1.2c-6.9-4-13.4-9.2-20-13.7
	c-5.1-3.5-10.6-6.5-15.6-10.2c-8.1-5.9-15-12.4-23.8-17.4c-1-2-1-4.5-1.3-6.7c-1.1-8.2-1.1-16.5-2.4-24.7
	c-1.9-12.4-5.9-24.2-8.9-36.4l-8-35.6c-1.5-8.3-1.9-16.7-3-25l-3.9-24.7c-0.8-6.9-0.8-13.8-1.3-20.8c-0.2-3.6-1.5-9.8,0.4-12.8
	c2.1-1.4,5.4-1.8,7.8-2.5l23-5.9l20.8-6.1l35.7-8.8c6.6-1.3,13.4-2.6,20.1-3.4l29.8-2.7l51.7-6.9l50.1-3.3c4.6-0.3,9.1-0.9,13.6-1.7
	c3.9-0.7,7.6-1.8,11.6-2.1c0.4-1.3,1.1-12.3,0.8-13.2l-1.9-0.7c-1.4-0.7-2.1-1.7-2.5-3.1c-0.7-2.4-0.8-5.7,0.5-8
	c1.1-2.1,2.2-1.6,4.1-2.1c0.9-2,1.3-4.5,1.8-6.7c1.9-7.9,2.3-15.5,2.8-23.6l1.4-19.8c0.6-9.2,0.8-19.8,5.3-28.1
	C286.3,30.5,288.2,28.6,291.8,27.5z M490,96.7c-0.2,2.3-1.5,8.3-0.6,10.2c0.2,0.5,0.2,1.1,0.2,1.6l0.2-0.3l0.2-6
	C490.1,100.6,491,98,490,96.7z"/>
<path d="M490,96.7c1,1.3,0.1,4-0.1,5.6l-0.2,6l-0.2,0.3c0-0.5,0-1.1-0.2-1.6C488.6,104.9,489.8,99,490,96.7z"/>
<path class="st0" d="M403,248.1l28.9,4.8l3.4,20.6c-7-4.8-13.7-10.4-20.4-15.7C410.8,254.7,406.3,252,403,248.1z"/>
<path class="st1" d="M403.8,252.5l3.1,2.3l18.5,14.4l7.4,5.7c0.6,0.5,2.1,1.4,2.5,2c1,1.4,2.3,14.2,2.7,16.8l-34.6-30.2
	C403.3,259.8,403.7,256.1,403.8,252.5z"/>
<path class="st1" d="M491,57.1l12.2,1c-14.9,24.8-17.4,54.2-14.4,82.5l0.5,3.1l-0.4,0l-9.4-20.9c0.8-2.5,0.9-5.1,1.3-7.7l1.3-7.7
	l3.5-24.2c0.6-4.4,0.8-8.9,1.7-13.3C488.2,65.7,489.8,61.4,491,57.1z"/>
<path class="st0" d="M661.8,100.8l0.3,0.4c3.1,4.6,4.9,10.3,6.8,15.4c2,5.3,4.3,10.2,5.2,15.8c1.5,9-0.2,18.6-0.3,27.7l-0.2,26.6
	c-0.1,3.5,0.3,7.5-0.5,10.9l-0.5-1c-1-2.8-2-5.7-3.5-8.3c-1.6-2.8-3.6-5.3-4.7-8.3c-1.3-3.3-0.9-7.4-2-10.9c-0.4-1.4-1-3-1.8-4.3
	c-0.3-0.5-1.4-1.6-1.6-2.1c-0.2-0.5,0.1-1.9,0.2-2.5l0.3-8.2c0-8.1-1.4-16.3-0.7-24.4c0.4-4.2,1.7-8.3,2.5-12.4
	C662.4,110.4,662.4,105.8,661.8,100.8z"/>
<path class="st0" d="M656.6,187.6c2.7,6.4,4.5,13.1,6.8,19.6l5.3,15c0.5,1.6,1.4,3.5,1.6,5.2c0.3,2.2-0.7,5.4-0.9,7.7l-3.7,30.2
	c-0.7,3.9-1.1,9.6-3.5,12.9l-0.6-0.4c-0.9-3.6-2.3-7.1-3.7-10.4l-4.8-10.2l-4.5-10.9c-0.2-0.5-1.5-3-1.5-3.3
	c0.1-0.9,2.2-3.3,2.8-4.2c0.9-1.7,1.6-3.5,2.2-5.4c1.1-3.7,1.6-7.6,2.3-11.4c1-5.6,2-11.2,2.4-16.8
	C657.2,199.2,656.9,193.3,656.6,187.6z"/>
<path class="st1" d="M233.6,340.6c0.3-0.1,0.5-0.1,0.8-0.1c1.1,0.2,1.4,1.2,2,2.1l14.7,25.1c4.2,6.8,9.1,13.2,13.9,19.6l-28.9,4
	c-5.4-8.2-12.3-15.5-18-23.5c-5.1-7.2-9.2-15.3-13.7-23L233.6,340.6z"/>
<path class="st0" d="M403.7,266.7l34.1,29.9l0.6,0.7c0.7,0.9,0.9,2.5,1.2,3.7l1.6,6.4c1.9,7,4.6,13.9,6.2,21
	c2.3,10.2,2.8,20.4,3.6,30.8c0.3,4.1,1.5,9,0.7,13.1c-0.2,0.9-0.2,0.8-0.9,1.3c-11.7-12.7-21.6-27.3-32.2-40.8
	c-3.9-5-7.4-9.8-11.9-14.3c1.1-4.3,1-9,1.1-13.4c0-5.5,0.1-11.3-0.5-16.8C406.5,281,404.8,273.9,403.7,266.7z"/>
<path class="st1" d="M505.9,147.9c11.9,0,23.9-0.1,35.8,0.8l53.5,6.4c16.3,1.7,33.1,2.1,49.1,5.5c1.7,0.4,11.7,2.3,12.4,3.1
	c0,0-0.1,3.4-0.1,3.7c0,1-0.2,1.8,0.3,2.6l0.9,0.1c1-0.7,0.8-1.5,1-2.7l0.4,0.1c2,4.5,1.3,9.1,3,13.6c1.2,3.2,3.5,5.7,5,8.7
	c2.4,4.8,4.1,9.9,5.7,15.1c0.5,1.7,1.4,3.7,1.5,5.5c0.4,5-0.9,11.4-1.8,16.4l-2.2-6.4l-5.2-14.3l-6-18.1c-1-2.9-1.8-6.4-4-8.6
	c-1.8-1.8-4.3-2.9-6.7-3.7c-5-1.6-10.4-2.1-15.5-2.9c-8.8-1.5-17.8-3.2-26.7-4l-50.2-3.1l-51.2-5.8c-2.1-0.3-4.2-0.4-6.2-0.4
	c-1.3,0-2.6,0.7-3.7-0.1l0-1.2c0.3,0.1,0.5,0.2,0.9,0.2c0.9-0.1,1.5-0.8,2.2-1.4C501.3,154.4,503.6,151.2,505.9,147.9z"/>
<path class="st1" d="M301.6,113.4c7.1-0.5,13.8,0.6,20.8,0.9c6,0.3,11.8-0.6,17.8,0c7.9,0.9,15.7,3,23.4,4.7l23.7,5.3
	c5.8,1.6,11.4,3.9,17.3,5.2l25.1,5.1c1,0.2,3.3,0.3,4.1,0.7c1.3,0.6,2.8,2.3,3.9,3.3l10,8.4c7.1,5.7,14.2,9.7,22.3,13.7
	c-3.4,0.3-7.3-1-10.6-1.8l-14.5-3.2l-60.6-14c-17.3-4.8-33.8-11.9-51.6-15c-11.9-2.1-23.9-1.4-35.9-1.4c-8.1,0-16.3,0.6-24.1-2
	c-0.3-0.1-0.7-0.2-1-0.4c-0.7-0.4-1.2-2.4-1.2-3.2c-0.2-1.5-0.1-3.5,1-4.7c0,0,0.3-0.4,0.4-0.4c0.4-0.1,1.5,0,2,0l5.8-0.1
	L301.6,113.4z"/>
<path class="st0" d="M267.9,201.2c10.7,0.4,21,0.8,31.5,2.9c13.4,2.7,26.1,7.6,39,11.9c16.1,5.4,32.6,10.3,49.1,14.2
	c11.4,2.7,23.2,5.2,34.9,6.4c6.9,0.7,13.9,0.2,20.9,0.9c1.8,0.2,3.9,0.2,5.7,0.8c0.2,0.1,0.8,3.1,0.9,3.6c1.2,4.8,2.9,9.7,5,14.2
	c-8.5-3.5-18.2-4.8-27.2-6.3l-49.2-7.7c-18.6-3-36.6-7.9-54.9-12.1l-16.6-3.7c-4.8-1-9.8-1.7-14.5-3.1c-2.7-0.8-6.2-2-8.5-3.6
	c-3-2.1-5.6-5.3-8.1-8.1C272.9,208.1,270,205,267.9,201.2z"/>
<path class="st1" d="M495.9,162c0.9,0,1.4-0.1,2.1,0.6c-1.2,5.3-2.7,10.8-3.2,16.2c-0.4,5.2-0.1,10.5-0.7,15.7
	c-1.7,14.3-4.9,28.5-9.4,42.2c-1.2,0-2.7-0.1-3.8,0.4c-0.3,0.1-0.4,0.7-0.6,1l0.3,0.7l4.7,0.5l2.3,17.7c0.2,1.9,0.6,4-0.7,5.5
	c-8.5,0.1-19.2-1.4-26.9-5.3c-3.9-2-4.7-4.8-6-8.6c-1.1-3.4-2.1-6.6-2.8-10.1c2.9,0,12.7,0.8,14.6-0.2c0.1-1,0.2-1-0.4-1.8
	l-14.4-0.3l8.8-35.4l6.8-20.3c1.6-5.4,2.7-11.4,3.5-16.9l5.5,0.6c1,0.1,2.1-0.1,2.9,0.4c4.1,2.5,7.7,5,12.5,6
	C494.1,168.4,495.2,165.4,495.9,162z"/>
<path d="M470.7,236.6c1.6,0,3.5-0.3,5,0.2c0.2,0.8,0.1,0.9-0.1,1.6l-1.6,0.5l-0.5,0c-1.4,0-3.4,0.3-4.3-0.7l0.5-1.3L470.7,236.6z"/>
<path class="st1" d="M536.9,30.1l0.3-0.1c3.5-0.5,6.5,0.1,9.3,2.3c4,3.1,6.1,8,6.6,12.9c0.8,6.8-0.5,13.6-2.7,20
	c-4.7,13.5-12.4,25.6-19.5,37.9l-19.9,32.5c-3.3,5.2-6.5,10.4-10.3,15.3l-5.9,6.2c-1.2-3.1-2.2-6.5-4-9.4l-0.2-0.3
	c0.4-0.5,1-0.9,1-1.6c0-5.1-1.1-10.5-1.3-15.7l0.2-21.1c0.2-4.7,0.4-9.5,1.2-14.1c2.1-11.9,6.9-24.3,12.9-34.8
	C511.6,48,522.7,34,536.9,30.1z"/>
<path d="M526.5,49.2l0.2,0c2.3-0.3,4.5-0.2,6.3,1.3c2,1.6,3,4.2,3.3,6.7c0.5,5.7-0.2,11.5-1.8,16.9c-3.7,12.9-10.2,25-15.6,37.3
	l-8.8,19.8c-2,4.3-3.5,8.8-6.6,12.4c-1,0.8-2.2,1.8-3.5,2c-1.3,0.2-2.1,0.1-3.2-0.6c-0.1-1.2-0.4-1.6-0.9-2.6
	c-0.9-2,0.1-7.3,0.3-9.5l3.5-25.7c0.9-5.7,1.7-11.4,3-17c1.3-5.5,3-10.8,5.1-16.1C511.3,65.3,517.4,53.1,526.5,49.2z"/>
<path class="st1" d="M527.6,51.4c1.5,0,2.9,0.2,4,1.2c2.6,2.4,2.4,6.9,2.5,10.2l-7.2-1.8l-8.3-1.9C521.1,55.7,523.7,53.1,527.6,51.4
	z"/>
<path class="st2" d="M517.2,61.1c5.4,1.9,11.2,2.6,16.7,4.2c-2.8,15.3-10.2,29.5-16.6,43.6l-11.5,25.9l-2.5,5
	c-1.1,1.8-2.2,2.9-4.2,3.4c-0.7,0.2-0.7,0.1-1.2-0.3l3.4-29.6c1.1-8,2.2-16.4,4.2-24.2C508,79.2,511.9,70,517.2,61.1z"/>
<path class="st0" d="M487.6,239.3l157.7,4.6c0.7,2.2,1.8,4.5,2.6,6.7c4,9.9,9,19,11.9,29.3l-0.8,0.7c-1.3,0.5-2.5,0.2-3.7,0.6
	c-2.1,0.6-4.3,0.2-6.5,0l-15.9-1.7c-11.1-1.2-21.9-3.8-32.8-5.7l-23.9-3.4l-18.2-2.8l-23.9-2.5l-23.8-2.8l-19.8-2.1L487.6,239.3z"/>
<path class="st1" d="M429.2,61.6c6.6-0.2,20.7,7,25.9,11.1c2.6,2,4.3,4.3,5.7,7.3c2.6,5.3,5.2,10.9,7.1,16.4
	c2.3,6.7,3.9,13.4,6.6,20.1l8.5,20.2c2.8,5.9,6.2,11.7,8.6,17.9c1.1,2.8,1.5,5.8,1.9,8.7c-0.7,2.1-1.8,3.5-3.1,5.2
	c-4.8-2-9-5.1-13.6-7.5c-4.3-2.1-8.8-3.7-12.9-5.9c-4.8-2.5-9.3-5.7-13.6-9.1l-12.7-10.6c-13.3-11.2-29.6-25.3-31.9-43.7
	c-0.7-6,0.1-15.3,4-20.2C414,65.8,422.2,62.3,429.2,61.6z"/>
<path d="M433.6,93.9c4.5-0.2,7.9,1.8,11.4,4.5c4.4,3.5,9,7.2,12.6,11.5c3.8,4.5,6.5,9.8,9.7,14.8l11.4,16.8c1.4,2.3,2.5,4.8,3.7,7.1
	c2.1,4,4,7.3,4.5,11.8c-1.7-0.2-3.3-0.7-4.9-1.2c-19.6-12.5-44.1-23.7-52.8-46.9c-1.6-4.2-3.2-9.6-1.2-13.9
	C429.3,95.9,431,94.9,433.6,93.9z"/>
<path class="st2" d="M433.8,96.2l0.2,0c1.5,0,2.8,0.1,4.2,0.7c3.6,1.5,6.7,4.4,9.7,7c2.4,2.1,5,4.1,7,6.5
	c4.2,4.8,7.2,10.5,10.6,15.9l11,16.3c2.9,4.7,5.6,10.4,7.8,15.6l-3.2-1.9c-16.4-11.4-37.4-19.8-47.1-38.6
	c-2.5-4.8-6.1-12.5-4.1-17.9C430.7,97.9,432.1,96.9,433.8,96.2z"/>
<path class="st0" d="M198.3,345.6l3-0.3c0.9,0,1.5,1.6,2,2.3c3.9,6.5,7.4,13.4,11.6,19.7c5.6,8.4,12.4,16.6,18.8,24.5l-47.2,9.3
	c-15.9,2.9-32.3,3.7-48.3,5.3c-9.9,1-19.8,2.5-29.7,3c-3.2,0.1-7.1,0.5-10.3-0.3c-1.4-0.3-2.8-1.6-4-2.4l-9.4-6.5l-23.7-15.8
	c-7.1-5.2-13.2-11.5-21-15.7c11.6-0.1,23.1-0.4,34.7-1.8l20.2-3.3c6.6-1,13.3-1.6,19.9-2.9l33.1-7.8L198.3,345.6z"/>
<path class="st2" d="M9.6,185.5c6.1,7.5,13.8,12,21.3,17.8c3.4,2.6,6.5,5.7,9.7,8.5c6.4,5.8,12.7,11.9,17.4,19.3
	c1.9,2.9,2.6,8.1,3.5,11.5l6.1,24.3l18.2,59.5c3.6,11.3,6.1,23.9,12,34.3l-5.6,0.8c-18.1,3.2-35.8,5.2-54.2,4.5
	c-0.9-4.2-1.1-8.5-1.4-12.8c-0.6-7.4-1.2-14.5-2.6-21.8c-2.1-10.5-5.3-20.8-8-31.2l-7.8-34.8c-1.5-7.5-1.7-15.3-2.7-22.9l-4.2-27.2
	C10.2,205.5,10.3,195.5,9.6,185.5z"/>
<path class="st2" d="M550.7,70.9c5.4,1.8,11.2,2.9,16.8,4l24,4.3l24.2,3.1l20.1,2.7c5.7,0.9,11.6,2,16.8,4.6c1.8,0.9,3.9,2,5.1,3.6
	c1.4,1.8,1.6,4.8,1.8,7c0.3,4,0.7,8.1,0.1,12.1c-0.8,5.6-2.8,11-3,16.6c-0.3,10.8,1.1,21.5,0.1,32.3c-10.4-3.2-21.6-4.7-32.5-5.7
	l-50.2-5l-36.9-4.3l-29.1-0.7c-0.1-1,2.3-4.2,2.9-5.1l11.8-18.2l11.5-19.8C540.1,92.1,546.1,82,550.7,70.9z"/>
<path class="st0" d="M405.7,320.8c4,2.5,7.2,8.3,10.1,12l15.8,20.4c5.6,7.4,11.2,15.6,17.8,22.1c-4.1,1.7-8.1,3.1-12.5,3.4
	c-5.4,0.5-10.9,0.1-16.2,0l-28.2-0.1c-37.5,0.9-75,2.8-112.3,7.1l-12.4,1.4L237.3,340l33-4.9l61.2-5.7l25.7-2.9
	C373.3,324.7,390,324.6,405.7,320.8z"/>
<path d="M398.3,336.2l1.2-0.1c2.6,3.2,6,7,7.9,10.6c0.5,1,0.4,1.2,0,2.2c-0.4,0-0.4,0.1-0.8-0.1c-0.9-0.3-2.2-2.5-2.8-3.3
	c-1.7-2.3-4.5-5-5.7-7.6C397.7,337.2,398,336.9,398.3,336.2z"/>
<path d="M405.9,333.2c0.4-0.1,0.8,0.1,1.2,0.1c4.4,6.3,8.9,12.5,12.8,19.1c1.1,1.9,2.9,4.3,3.3,6.5l-0.7,0.8c-0.5,0-0.9-0.1-1.3-0.3
	l-6.5-11l-6.6-9.6c-0.9-1.3-2.6-3.1-2.8-4.6C405.2,334,405.7,333.5,405.9,333.2z"/>
<path class="st2" d="M500.6,161.8l19.9,2.6l29.3,3l34.5,2.4l18.2,0.9c9.6,0.8,19.2,2.5,28.7,4c6.5,1.1,15.8,1.5,21.3,5.3
	c0.7,0.5,2.4,1.6,2.4,2.4c0.1,2-0.3,4.2-0.3,6.3c0,5.2,0.3,10.4,0,15.5c-0.4,6.5-1.6,12.8-2.7,19.2c-1,5.5-2,13.1-6.2,17.2
	c-0.9,0.9-1.7,0.7-2.8,0.7l-155.5-4.5c0.8-4.5,2.4-8.8,3.6-13.2c1.8-6.9,3.2-14,4.4-21c1.3-7.8,1-15.5,1.8-23.3
	C497.6,173.4,499.1,167.6,500.6,161.8z"/>
<path class="st2" d="M291.7,29.9c1.8-0.2,3.9,0,5.7,0.1c9.9,0.6,18.9,4.7,28.7,6l59.9,6.2l17.5,2.5l16.6,2.2l23.6,4.4l45,5.4
	c-1.2,4.2-2.8,8.5-3.6,12.8c-0.9,4.5-1.1,9.2-1.8,13.8l-5.3,35.8c-1.5-3.5-3.1-7.1-4.3-10.7l-3.5-12c-1.4-4.1-3.2-8.2-5-12.2
	c-1.2-2.7-2.4-5.7-4-8.3c-3.6-5.5-10.1-8.8-15.9-11.5c-4.6-2.2-9.2-4.1-14.2-5.1l-2.2-0.1c-7,0.3-16,4.9-20.6,10.1
	c-4.3,4.8-5.7,14.4-5.3,20.8c1.2,17.4,14.8,31.3,27.2,42.1c-0.2,0.2-12-2.4-13.5-2.7l-12.9-2.5l-17.6-5.2l-19.2-4.2
	c-8.6-1.9-17.2-4.2-25.9-5.3c-5.7-0.7-11.2,0-16.9-0.1c-6.1-0.1-12.1-1.1-18.1-1.1l-30.2,1.3c0.8-6.1,2.8-11.9,3.4-18.1l2.1-32.6
	c0.6-8.4,0.8-17.9,4.6-25.6C287.3,33.6,289.1,30.8,291.7,29.9z"/>
<path class="st2" d="M270.1,141.8c0.9-0.1,1.4-0.3,2.1,0.3c-0.4,14.3-3.3,28.8-6.1,42.8l-14.6,2.5l-25.1,5l-99,21.7l-35.2,6.9
	c-11.2,2.1-22.2,3.5-32.9,7.7c-3.1-4.1-6.3-8.2-9.8-11.9c-3.6-3.8-7.8-7.3-11.7-10.8c-4.8-4.3-10-7.6-15.1-11.5
	c-4.3-3.3-7.8-6.6-11.3-10.7l13.4-3.7l20.3-5.1l18.7-5.6c15.4-4.4,31.4-8.2,47.3-10.5l38.3-3.7l54.7-7l48.3-3.1
	C258.3,144.2,264.1,142.8,270.1,141.8z"/>
<path class="st2" d="M275.4,126.5c7.6,1.3,14.9,1.1,22.6,1c12.3-0.1,24.4-0.5,36.5,1.8c17.4,3.2,33.8,10.4,50.8,15l36.1,8.5
	l46.6,10.1l-16.7,63.7l-2.5,9.2c-4.3-0.5-8.7-1-13-1.2c-4.8-0.2-9.5,0-14.3-0.4c-11.9-1.1-24.2-3.9-35.8-6.7l-47.7-13.9
	c-12.8-4.2-25.2-9.1-38.5-11.8c-10.7-2.1-21.3-2.6-32.2-3.1c-0.1-4.1,0-8.3,0.6-12.3l3.6-18.7C273.8,154,274.8,140.3,275.4,126.5z"
	/>
<path class="st2" d="M263.8,187.6l1.1-0.1c0.2,0.1,0.5,0.2,0.6,0.4c0.2,0.3-0.1,2-0.1,2.5c-0.1,4.2-0.8,9.4,1.1,13.3
	c1.1,2.2,3,4.1,4.6,6c2,2.3,4,4.7,6.2,6.9c1.7,1.7,4.5,3.6,5.3,5.9l0.1,0.2c0.8,0.1,1.4-0.3,1.8-0.3c0.8,0.1,2.3,1,3.1,1.3
	c2.1,0.9,4.3,1.6,6.5,2.2l18.3,3.9l48.7,11.5l40.4,6.4c0,5.3-0.8,10.8-0.4,16.1c0.5,6.9,2.2,13.5,3.2,20.3
	c1.6,11.1,1.4,23.3,0.2,34.5c-6.2,1.8-12.6,2.3-19,2.9l-24.8,2.2l-30.8,3.5l-51.3,4.6l-55.8,8.1l-34.1,4.3l-88.4,16.1
	c-5.8-11-8.5-23.2-12.3-35l-19.2-63L63.6,241c-0.9-3.5-1.7-7.1-3-10.6c11.1-4.1,22.5-5.4,34-7.7l45.7-9.1l100.1-21.9L263.8,187.6z"
	/>
</svg>
