<?xml version="1.0" encoding="UTF-8"?>
<svg id="_Шар_1" data-name="Шар 1" xmlns="http://www.w3.org/2000/svg" viewBox="0 0 451.59 487.72">
  <defs>
    <style>
      .cls-1 {
        fill: #2f0363;
      }

      .cls-1, .cls-2, .cls-3, .cls-4, .cls-5, .cls-6 {
        stroke-width: 0px;
      }

      .cls-7 {
        stroke: #816c6f;
      }

      .cls-7, .cls-8, .cls-9, .cls-10, .cls-11, .cls-12, .cls-13, .cls-14, .cls-15 {
        fill: none;
        stroke-width: 2px;
      }

      .cls-2 {
        fill: #bca1ff;
      }

      .cls-8 {
        stroke: #81795e;
      }

      .cls-3 {
        fill: #654fc1;
      }

      .cls-9 {
        stroke: #05c1b3;
      }

      .cls-4 {
        fill: #7b9bff;
      }

      .cls-5 {
        fill: #8568e0;
      }

      .cls-10 {
        stroke: #ff8e68;
      }

      .cls-11 {
        stroke: #81abad;
      }

      .cls-12 {
        stroke: #72a6ac;
      }

      .cls-6 {
        fill: #7ba1ff;
      }

      .cls-13 {
        stroke: #04908d;
      }

      .cls-14 {
        stroke: #03888b;
      }

      .cls-15 {
        stroke: #ffbfb7;
      }
    </style>
  </defs>
  <g>
    <path class="cls-12" d="m355.18,113.69c1.07-1.48,2.16-2.93,3.27-4.36,6.29-8.05,10.75-17,13.37-26.87,5.38-20.26-1.79-46.28-16.9-61.53C319.96-14.35,263.38-.47,244.72,44.38c-.19.46-.7.71-1.18.58-2.85-.76-5.58-1.44-8.19-2.03-9.33-2.11-18.38-1.45-27.14,1.97-.41.16-.87-.03-1.05-.43-8.92-19.36-25.91-35.5-46.59-41.21-19.66-5.42-43.71-.72-59.21,13.16-29.55,26.48-30.16,67.24-5.35,97.13.15.18.13.44-.05.59-.08.07-.18.1-.29.1-13.49-.22-28.04-1.25-41.2,3.2C24.47,127.58,2.4,158.4,1.21,189.96c-.38,9.93-.25,17.34.4,22.25,2.47,18.81,10.94,34.28,25.39,46.39.72.6,1.09,1.39,1.1,2.36.71,51.73.14,103.52.13,155.25-.01,33.4,25.19,62,57.33,69.22,3.82.86,8.9,1.29,15.25,1.29,81.61-.02,163.21-.02,244.82-.01,8.37,0,14.36-.29,17.95-.88,25.49-4.15,46.03-22.93,55.32-46.64,2.93-7.46,4.4-14.37,4.41-20.73.09-49.51.1-99.03.04-148.54,0-2.7.32-5.9.25-8.81-.01-.7.27-1.37.77-1.85,4.91-4.65,10.08-9.86,13.71-15.29,6.23-9.33,10.07-19.67,11.53-31.02,3.76-29.26-3.03-56.71-24.32-77.91-7.92-7.89-16.31-13.48-25.16-16.78-15.15-5.65-29.52-4.13-44.7-4.08-.41,0-.49-.16-.25-.49" vector-effect="non-scaling-stroke"/>
    <path class="cls-11" d="m333.92,88.69c8.3-13.44,11.05-32.18-1.5-44.27-15.45-14.89-39.39-12.28-52.49,4.08-4.39,5.49-8.54,11.11-12.44,16.88-.15.22-.19.5-.11.75,1.71,5.51,4.33,11.51,5.18,16.57,1.37,8.21.5,16.24-2.63,24.07-.17.42.04.9.46,1.06.1.04.2.06.31.06,9.69-.1,19.25-.15,28.7-.14,15.17,0,26.67-6.35,34.52-19.06" vector-effect="non-scaling-stroke"/>
    <path class="cls-11" d="m181.07,107.27c-5.27-14.76-3.11-26.95,3.99-40.37.14-.27.1-.59-.09-.82-6.46-7.88-13.94-18.66-20.59-24.04-15.49-12.55-42-8.85-50.78,10.19-11.14,24.15,11.51,55.43,37.28,55.58,10.03.05,19.95.07,29.78.04.41,0,.54-.19.41-.58" vector-effect="non-scaling-stroke"/>
    <path class="cls-11" d="m223.31,109.26c9.11,1.38,17.65-5.1,19.07-14.47h0c1.42-9.37-4.82-18.08-13.94-19.46h0c-9.11-1.38-17.65,5.1-19.07,14.47-1.42,9.37,4.82,18.08,13.94,19.46" vector-effect="non-scaling-stroke"/>
    <path class="cls-11" d="m197.9,228.62c0,.42.34.76.76.76h0l53.86.12c.42,0,.76-.34.76-.76h0s-.1-81.75-.1-81.75c0-.42-.34-.76-.76-.76h0l-54.02-.18c-.42,0-.76.34-.76.76l.26,81.81" vector-effect="non-scaling-stroke"/>
    <path class="cls-7" d="m284.76,181.01l.27,46.99c0,.97.49,1.45,1.46,1.45,39.25.04,78.13.05,116.64.04,1.13,0,2.1-.37,2.91-1.12,8.75-8.08,12.39-19.86,11.78-31.55-.25-4.76-.45-10.11-1.98-15.77" vector-effect="non-scaling-stroke"/>
    <path class="cls-8" d="m415.84,181.05c-5.62-17.21-19.3-29.95-36.8-33.66-3.73-.79-10.37-1.19-19.91-1.19-24.55,0-49.11-.04-73.7-.1-.34,0-.51.17-.52.51l-.15,34.4" vector-effect="non-scaling-stroke"/>
    <path class="cls-10" d="m415.84,181.05c-.26.77-1.01.89-2.24.36-.76-.32-1.44-.48-2.03-.49-28.14-.26-56.29-.13-84.44-.24-14.19-.05-28.32.06-42.37.33" vector-effect="non-scaling-stroke"/>
    <path class="cls-7" d="m35.8,180.87c-4.18,16.54-3.05,33.39,8.41,46.39,1.04,1.18,2.45,2.22,3.92,2.22,36.25-.05,72.5-.02,108.75.11,2.91.01,5.8-.03,8.65-.13.33-.01.6-.29.6-.62l-.29-48.18" vector-effect="non-scaling-stroke"/>
    <path class="cls-8" d="m165.84,180.66l-.04-34.14c0-.19-.15-.35-.34-.35h0c-26.13,0-52.24.05-78.33.14-4.81,0-9.85-.05-14.36.82-12.31,2.39-22.07,8.54-29.29,18.43-3.21,4.4-5.77,9.5-7.68,15.31" vector-effect="non-scaling-stroke"/>
    <path class="cls-10" d="m165.84,180.66c-.18.57-.5.79-.96.68-1.19-.3-2.11-.63-3.37-.63-41.98-.06-83.88,0-125.71.16" vector-effect="non-scaling-stroke"/>
    <path class="cls-7" d="m198.07,354.11l.03,98.87c0,.42.34.76.76.76h0l54.05.07c.2,0,.37-.17.37-.37l-.03-99.48" vector-effect="non-scaling-stroke"/>
    <path class="cls-11" d="m253.25,353.96l-.13-92.14c0-.32-.16-.48-.49-.48l-53.75-.16c-.54,0-.98.44-.98.98h0s.17,91.95.17,91.95" vector-effect="non-scaling-stroke"/>
    <path class="cls-15" d="m253.25,353.96l-55.18.15" vector-effect="non-scaling-stroke"/>
    <path class="cls-13" d="m60.1,278.91l.02,69.59" vector-effect="non-scaling-stroke"/>
    <path class="cls-14" d="m60.12,348.5c-.09,18.31-.08,36.61.04,54.92.05,8.91.6,15.39,1.65,19.45,4.91,19.08,21.39,31.2,41.32,31.27,20.25.06,40.74.06,61.49,0,.74,0,1.11-.37,1.11-1.12l-.15-61.03" vector-effect="non-scaling-stroke"/>
    <path class="cls-13" d="m165.58,391.99l.32-113.82" vector-effect="non-scaling-stroke"/>
    <path class="cls-14" d="m165.9,278.17l-.07-16.04c0-.46-.23-.69-.69-.69l-104.27.11c-.51,0-.76.26-.76.77v16.59" vector-effect="non-scaling-stroke"/>
    <path class="cls-9" d="m165.9,278.17c-3.34-.03-6.63.05-9.86.23-8.42.45-16.68.55-24.94.5-23.67-.16-47.33-.35-71,.01" vector-effect="non-scaling-stroke"/>
    <path class="cls-9" d="m165.58,391.99l-.52,2.11c-.07.31-.27.46-.58.47-.63.02-1.23-.1-1.81-.36-.13-.05-.24-.03-.35.06-.08.08-.16.15-.23.22-.15.13-.31.22-.5.26-1.49.31-2.92.2-4.3-.33-.29-.11-.59-.12-.88-.02-2.17.69-4.3.72-6.41.07-1.62-.49-3.1-.42-4.68-.81-1.97-.5-3.12-.77-3.45-.82-2.66-.41-5.32-.76-7.98-1.05-.31-.04-.61,0-.9.14-.55.25-.9.62-1.05,1.12-.08.29-.26.51-.53.66-.83.45-1.39,1.14-1.68,2.07-.07.22-.21.32-.43.29l-5.91-.55c-.35-.03-.68-.13-.99-.28-.78-.38-1.66-.4-2.64-.07-.33.11-.65.11-.98,0-1.9-.61-4.03-.87-6.4-.77-.44.01-.86-.13-1.27-.44-.25-.19-.54-.29-.85-.32-2.11-.16-4.19-.48-6.24-.97-.35-.09-1.13-.44-2.34-1.07-1.45-.76-3.39-.57-4.49-2.07-.19-.26-.44-.4-.77-.41-1.21-.05-2.1-.62-2.65-1.71-.14-.27-.41-.45-.71-.47-1.17-.07-1.95-.64-2.32-1.72-.09-.26-.24-.48-.45-.66-1.37-1.18-2.47-2.59-3.29-4.24-.15-.3-.39-.51-.71-.63-2.21-.8-1.77-2.21-3.1-3.52-.34-.34-.78-.74-1.32-1.21-.27-.23-.4-.54-.37-.93.02-.27-.08-.48-.29-.63-.44-.31-.68-.73-.73-1.26-.03-.33-.17-.59-.42-.79-1.83-1.48-3.57-3.06-5.22-4.73-.37-.37-.82-.66-1.36-.87-.29-.11-.45-.33-.48-.65-.21-2.55-1.5-4.3-3.88-5.25-.3-.12-.52-.32-.67-.61-.7-1.36-1.56-2.46-2.57-3.3-.21-.17-.44-.12-.69.16-.05.05-.06.11-.01.17.12.16.09.32-.09.47-.26.22-.65.19-.87-.07-.06-.08-.11-.17-.13-.26-.13-.59-.34-1.15-.62-1.69-.21-.41-.48-.66-.81-.74-.38-.09-.77-.03-1.18.2-.34.19-.57.1-.68-.27-.53-1.67-.75-3.48-.68-5.41" vector-effect="non-scaling-stroke"/>
    <path class="cls-13" d="m285.04,278.76l.15,61.2" vector-effect="non-scaling-stroke"/>
    <path class="cls-14" d="m285.19,339.96l-.03,113.27c0,.47.38.85.85.85,18.41-.06,36.78-.06,55.13-.01,8.54.03,13.69-.09,15.46-.35,15.87-2.36,29.12-15.39,33.19-30.41,1.08-4,1.64-10.62,1.68-19.85.04-8.57.01-17.15-.08-25.74" vector-effect="non-scaling-stroke"/>
    <path class="cls-13" d="m391.39,377.72l-.03-99.01" vector-effect="non-scaling-stroke"/>
    <path class="cls-14" d="m391.36,278.71l.03-16.21c0-.52-.26-.78-.78-.79l-103.74-.31c-.82,0-1.49.66-1.51,1.48l-.32,15.88" vector-effect="non-scaling-stroke"/>
    <path class="cls-9" d="m391.36,278.71c-3.93-.96-8.65-.26-11.67-.25-14.24.02-28.4-.04-42.65.4-3.42.11-6.53.14-9.33.11-14.14-.17-28.36-.24-42.67-.21" vector-effect="non-scaling-stroke"/>
    <path class="cls-9" d="m391.39,377.72c-.33.62-.47,1.41-.4,2.38,0,.1-.07.19-.18.2-.06,0-.11-.02-.15-.06-.12-.13-.18-.28-.17-.45.01-.23-.09-.37-.31-.42-.58-.15-1.09-.42-1.54-.81-.14-.11-.73-.21-1.48-.26-.38-.03-.7.05-.95.23-.31.22-.62.21-.91-.03-3.62-2.93-7.73-1.54-11.19-4.34-.05-.04-.06-.12-.02-.17.01-.01.02-.02.04-.03.09-.04.17-.08.25-.12.14-.07.14-.13-.01-.18l-5.02-1.52c-1.01-.3-2.1-.04-2.85.69-.92.88-2.06,1.29-3.41,1.23-.32-.01-.6.08-.85.29-.27.23-.57.36-.88.4-.28.04-.71-.09-1.28-.4-1.07-.57-2.09-.43-3.07.4-.29.25-.63.35-1.01.3l-.96-.11c-.31-.03-.54.08-.7.34-.71,1.16-1.75,1.42-3.1.78-.13-.06-.2-.18-.23-.35-.05-.27-.14-.28-.28-.02-.54,1.01-1.36,1.34-2.45,1-.37-.11-.61.02-.72.39-.17.54-.55.79-1.15.76-.43-.02-.75.16-.97.53l-.34.59c-.17.3-.41.36-.7.17-.63-.39-1.32-.43-2.07-.11-1.43.61-2.95.97-4.55,1.06-.38.02-.57-.16-.57-.55v-1.07c0-.14-.12-.25-.26-.24-.08,0-.16.04-.2.11-.1.18-.26.2-.49.07-.16-.09-.21-.3-.11-.45,0,0,0-.01.01-.02,1.6-2.35,1.3-4.19-.89-5.52-.95-.57-.92-1.09.08-1.56.63-.29,1.27-.44,1.92-.44.33,0,.39-.12.17-.37-.16-.19-.22-.38-.18-.58.06-.31-.07-.43-.38-.38-.31.06-.59.03-.86-.08-.28-.12-.4-.33-.37-.64.06-.55.32-.82.77-.79.34.02.56-.13.65-.45.23-.75.07-1.32-.49-1.71-.32-.22-.81-.33-1.48-.32-1.74.01-3.48,0-5.22-.02-.36,0-.71-.13-1-.35-.73-.57-1.57-.77-2.51-.59-.24.04-.5,0-.71-.14l-2.75-1.85c-.19-.13-.42-.16-.64-.1-1.05.31-2.07.27-3.06-.1-.36-.14-.71-.11-1.04.08-.73.43-1.51.64-2.33.62-.29,0-.55-.09-.79-.24-.67-.41-1.33-.43-2-.05-.27.15-.5.11-.71-.12-.94-1.08-1.24-2.21-2.34-3.13-1.04-.87-1.97-1.85-2.79-2.92-.99-1.31-1.92-2.25-2.77-2.84-1.4-.95-2.83-1.86-4.3-2.71-.31-.18-.57-.43-.77-.74l-.75-1.2c-.06-.1-.19-.13-.29-.06-.04.03-.08.07-.09.12-.05.2-.19.31-.41.34-.1.01-.19-.05-.22-.15-.17-.65-.58-.94-1.21-.86-.29.04-.59-.09-.76-.33-.91-1.24-2.01-2.27-3.28-3.09-.27-.17-.49-.4-.66-.68-.52-.9-1.3-1.46-2.33-1.67-.31-.06-.56-.22-.75-.48-.35-.48-.82-.73-1.41-.74-.14,0-.27.04-.4.12-.12.07-.23.16-.33.25-.21.2-.38.17-.52-.08l-.77-1.42" vector-effect="non-scaling-stroke"/>
  </g>
  <path class="cls-1" d="m355.43,114.18c15.18-.05,29.55-1.57,44.7,4.08,8.85,3.3,17.24,8.89,25.16,16.78,21.29,21.2,28.08,48.65,24.32,77.91-1.46,11.35-5.3,21.69-11.53,31.02-3.63,5.43-8.8,10.64-13.71,15.29-.5.48-.78,1.15-.77,1.85.07,2.91-.25,6.11-.25,8.81.06,49.51.05,99.03-.04,148.54-.01,6.36-1.48,13.27-4.41,20.73-9.29,23.71-29.83,42.49-55.32,46.64-3.59.59-9.58.88-17.95.88-81.61-.01-163.21-.01-244.82.01-6.35,0-11.43-.43-15.25-1.29-32.14-7.22-57.34-35.82-57.33-69.22,0-51.73.58-103.52-.13-155.25-.01-.97-.38-1.76-1.1-2.36-14.45-12.11-22.92-27.58-25.39-46.39-.65-4.91-.78-12.32-.4-22.25,1.19-31.56,23.26-62.38,53.26-72.52,13.16-4.45,27.71-3.42,41.2-3.2.23.01.43-.17.44-.4,0-.11-.03-.21-.1-.29-24.81-29.89-24.2-70.65,5.35-97.13,15.5-13.88,39.55-18.58,59.21-13.16,20.68,5.71,37.67,21.85,46.59,41.21.18.4.64.59,1.05.43,8.76-3.42,17.81-4.08,27.14-1.97,2.61.59,5.34,1.27,8.19,2.03.48.13.99-.12,1.18-.58C263.38-.47,319.96-14.35,354.92,20.93c15.11,15.25,22.28,41.27,16.9,61.53-2.62,9.87-7.08,18.82-13.37,26.87-1.11,1.43-2.2,2.88-3.27,4.36-.24.33-.16.49.25.49Zm-21.51-25.49c8.3-13.44,11.05-32.18-1.5-44.27-15.45-14.89-39.39-12.28-52.49,4.08-4.39,5.49-8.54,11.11-12.44,16.88-.15.22-.19.5-.11.75,1.71,5.51,4.33,11.51,5.18,16.57,1.37,8.21.5,16.24-2.63,24.07-.17.42.04.9.46,1.06.1.04.2.06.31.06,9.69-.1,19.25-.15,28.7-.14,15.17,0,26.67-6.35,34.52-19.06Zm-152.85,18.58c-5.27-14.76-3.11-26.95,3.99-40.37.14-.27.1-.59-.09-.82-6.46-7.88-13.94-18.66-20.59-24.04-15.49-12.55-42-8.85-50.78,10.19-11.14,24.15,11.51,55.43,37.28,55.58,10.03.05,19.95.07,29.78.04.41,0,.54-.19.41-.58Zm42.24,2c9.11,1.38,17.65-5.1,19.07-14.47h0c1.42-9.37-4.82-18.08-13.94-19.46h0c-9.11-1.38-17.65,5.1-19.07,14.47-1.42,9.37,4.82,18.08,13.94,19.46Zm-25.41,119.35c0,.42.34.76.76.76h0l53.86.12c.42,0,.76-.34.76-.76h0s-.1-81.75-.1-81.75c0-.42-.34-.76-.76-.76h0l-54.02-.18c-.42,0-.76.34-.76.76l.26,81.81Zm86.86-47.61l.27,46.99c0,.97.49,1.45,1.46,1.45,39.25.04,78.13.05,116.64.04,1.13,0,2.1-.37,2.91-1.12,8.75-8.08,12.39-19.86,11.78-31.55-.25-4.76-.45-10.11-1.98-15.77-5.62-17.21-19.3-29.95-36.8-33.66-3.73-.79-10.37-1.19-19.91-1.19-24.55,0-49.11-.04-73.7-.1-.34,0-.51.17-.52.51l-.15,34.4Zm-248.96-.14c-4.18,16.54-3.05,33.39,8.41,46.39,1.04,1.18,2.45,2.22,3.92,2.22,36.25-.05,72.5-.02,108.75.11,2.91.01,5.8-.03,8.65-.13.33-.01.6-.29.6-.62l-.29-48.18-.04-34.14c0-.19-.15-.35-.34-.35h0c-26.13,0-52.24.05-78.33.14-4.81,0-9.85-.05-14.36.82-12.31,2.39-22.07,8.54-29.29,18.43-3.21,4.4-5.77,9.5-7.68,15.31Zm162.27,173.24l.03,98.87c0,.42.34.76.76.76h0l54.05.07c.2,0,.37-.17.37-.37l-.03-99.48-.13-92.14c0-.32-.16-.48-.49-.48l-53.75-.16c-.54,0-.98.44-.98.98h0s.17,91.95.17,91.95Zm-137.97-75.2l.02,69.59c-.09,18.31-.08,36.61.04,54.92.05,8.91.6,15.39,1.65,19.45,4.91,19.08,21.39,31.2,41.32,31.27,20.25.06,40.74.06,61.49,0,.74,0,1.11-.37,1.11-1.12l-.15-61.03.32-113.82-.07-16.04c0-.46-.23-.69-.69-.69l-104.27.11c-.51,0-.76.26-.76.77v16.59Zm224.94-.15l.15,61.2-.03,113.27c0,.47.38.85.85.85,18.41-.06,36.78-.06,55.13-.01,8.54.03,13.69-.09,15.46-.35,15.87-2.36,29.12-15.39,33.19-30.41,1.08-4,1.64-10.62,1.68-19.85.04-8.57.01-17.15-.08-25.74l-.03-99.01.03-16.21c0-.52-.26-.78-.78-.79l-103.74-.31c-.82,0-1.49.66-1.51,1.48l-.32,15.88Z"/>
  <path class="cls-2" d="m333.92,88.69c-7.85,12.71-19.35,19.06-34.52,19.06-9.45,0-19.01.04-28.7.14-.45,0-.82-.36-.83-.81,0-.11.02-.21.06-.31,3.13-7.83,4-15.86,2.63-24.07-.85-5.06-3.47-11.06-5.18-16.57-.08-.25-.04-.53.11-.75,3.9-5.77,8.05-11.39,12.44-16.88,13.1-16.36,37.04-18.97,52.49-4.08,12.55,12.09,9.8,30.83,1.5,44.27Z"/>
  <path class="cls-2" d="m185.06,66.9c-7.1,13.42-9.26,25.61-3.99,40.37.13.39,0,.58-.41.58-9.83.03-19.75.01-29.78-.04-25.77-.15-48.42-31.43-37.28-55.58,8.78-19.04,35.29-22.74,50.78-10.19,6.65,5.38,14.13,16.16,20.59,24.04.19.23.23.55.09.82Z"/>
  <ellipse class="cls-2" cx="225.88" cy="92.3" rx="17.16" ry="16.69" transform="translate(100.85 301.84) rotate(-81.4)"/>
  <path class="cls-6" d="m197.9,228.62l-.26-81.81c0-.42.34-.76.76-.76l54.02.18c.42,0,.76.34.76.76h0s.1,81.75.1,81.75c0,.42-.34.76-.76.76h0l-53.86-.12c-.42,0-.76-.34-.76-.76h0Z"/>
  <path class="cls-3" d="m415.84,181.05c-.26.77-1.01.89-2.24.36-.76-.32-1.44-.48-2.03-.49-28.14-.26-56.29-.13-84.44-.24-14.19-.05-28.32.06-42.37.33l.15-34.4c0-.34.18-.51.52-.51,24.59.06,49.15.09,73.7.1,9.54,0,16.18.4,19.91,1.19,17.5,3.71,31.18,16.45,36.8,33.66Z"/>
  <path class="cls-3" d="m165.84,180.66c-.18.57-.5.79-.96.68-1.19-.3-2.11-.63-3.37-.63-41.98-.06-83.88,0-125.71.16,1.91-5.81,4.47-10.91,7.68-15.31,7.22-9.89,16.98-16.04,29.29-18.43,4.51-.87,9.55-.81,14.36-.82,26.09-.09,52.2-.13,78.33-.14.19,0,.34.16.34.35h0s.04,34.14.04,34.14Z"/>
  <path class="cls-4" d="m165.84,180.66l.29,48.18c0,.33-.27.61-.6.62-2.85.1-5.74.14-8.65.13-36.25-.13-72.5-.16-108.75-.11-1.47,0-2.88-1.04-3.92-2.22-11.46-13-12.59-29.85-8.41-46.39,41.83-.17,83.73-.22,125.71-.16,1.26,0,2.18.33,3.37.63.46.11.78-.11.96-.68Z"/>
  <path class="cls-4" d="m415.84,181.05c1.53,5.66,1.73,11.01,1.98,15.77.61,11.69-3.03,23.47-11.78,31.55-.81.75-1.78,1.12-2.91,1.12-38.51.01-77.39,0-116.64-.04-.97,0-1.45-.48-1.46-1.45l-.27-46.99c14.05-.27,28.18-.38,42.37-.33,28.15.11,56.3-.02,84.44.24.59,0,1.27.17,2.03.49,1.23.53,1.98.41,2.24-.36Z"/>
  <path class="cls-6" d="m253.25,353.96l-55.18.15-.17-91.95c0-.54.44-.98.98-.98h0l53.75.16c.33,0,.49.16.49.48l.13,92.14Z"/>
  <path class="cls-5" d="m165.9,278.17c-3.34-.03-6.63.05-9.86.23-8.42.45-16.68.55-24.94.5-23.67-.16-47.33-.35-71,.01v-16.59c.01-.51.26-.77.77-.77l104.27-.11c.46,0,.69.23.69.69l.07,16.04Z"/>
  <path class="cls-5" d="m391.36,278.71c-3.93-.96-8.65-.26-11.67-.25-14.24.02-28.4-.04-42.65.4-3.42.11-6.53.14-9.33.11-14.14-.17-28.36-.24-42.67-.21l.32-15.88c.02-.82.69-1.48,1.51-1.48l103.74.31c.52,0,.78.27.78.79l-.03,16.21Z"/>
  <path class="cls-2" d="m165.9,278.17l-.32,113.82-.52,2.11c-.07.31-.27.46-.58.47-.63.02-1.23-.1-1.81-.36-.13-.05-.24-.03-.35.06-.08.08-.16.15-.23.22-.15.13-.31.22-.5.26-1.49.31-2.92.2-4.3-.33-.29-.11-.59-.12-.88-.02-2.17.69-4.3.72-6.41.07-1.62-.49-3.1-.42-4.68-.81-1.97-.5-3.12-.77-3.45-.82-2.66-.41-5.32-.76-7.98-1.05-.31-.04-.61,0-.9.14-.55.25-.9.62-1.05,1.12-.08.29-.26.51-.53.66-.83.45-1.39,1.14-1.68,2.07-.07.22-.21.32-.43.29l-5.91-.55c-.35-.03-.68-.13-.99-.28-.78-.38-1.66-.4-2.64-.07-.33.11-.65.11-.98,0-1.9-.61-4.03-.87-6.4-.77-.44.01-.86-.13-1.27-.44-.25-.19-.54-.29-.85-.32-2.11-.16-4.19-.48-6.24-.97-.35-.09-1.13-.44-2.34-1.07-1.45-.76-3.39-.57-4.49-2.07-.19-.26-.44-.4-.77-.41-1.21-.05-2.1-.62-2.65-1.71-.14-.27-.41-.45-.71-.47-1.17-.07-1.95-.64-2.32-1.72-.09-.26-.24-.48-.45-.66-1.37-1.18-2.47-2.59-3.29-4.24-.15-.3-.39-.51-.71-.63-2.21-.8-1.77-2.21-3.1-3.52-.34-.34-.78-.74-1.32-1.21-.27-.23-.4-.54-.37-.93.02-.27-.08-.48-.29-.63-.44-.31-.68-.73-.73-1.26-.03-.33-.17-.59-.42-.79-1.83-1.48-3.57-3.06-5.22-4.73-.37-.37-.82-.66-1.36-.87-.29-.11-.45-.33-.48-.65-.21-2.55-1.5-4.3-3.88-5.25-.3-.12-.52-.32-.67-.61-.7-1.36-1.56-2.46-2.57-3.3-.21-.17-.44-.12-.69.16-.05.05-.06.11-.01.17.12.16.09.32-.09.47-.26.22-.65.19-.87-.07-.06-.08-.11-.17-.13-.26-.13-.59-.34-1.15-.62-1.69-.21-.41-.48-.66-.81-.74-.38-.09-.77-.03-1.18.2-.34.19-.57.1-.68-.27-.53-1.67-.75-3.48-.68-5.41l-.02-69.59c23.67-.36,47.33-.17,71-.01,8.26.05,16.52-.05,24.94-.5,3.23-.18,6.52-.26,9.86-.23Z"/>
  <path class="cls-2" d="m285.04,278.76c14.31-.03,28.53.04,42.67.21,2.8.03,5.91,0,9.33-.11,14.25-.44,28.41-.38,42.65-.4,3.02-.01,7.74-.71,11.67.25l.03,99.01c-.33.62-.47,1.41-.4,2.38,0,.1-.07.19-.18.2-.06,0-.11-.02-.15-.06-.12-.13-.18-.28-.17-.45.01-.23-.09-.37-.31-.42-.58-.15-1.09-.42-1.54-.81-.14-.11-.73-.21-1.48-.26-.38-.03-.7.05-.95.23-.31.22-.62.21-.91-.03-3.62-2.93-7.73-1.54-11.19-4.34-.05-.04-.06-.12-.02-.17.01-.01.02-.02.04-.03.09-.04.17-.08.25-.12.14-.07.14-.13-.01-.18l-5.02-1.52c-1.01-.3-2.1-.04-2.85.69-.92.88-2.06,1.29-3.41,1.23-.32-.01-.6.08-.85.29-.27.23-.57.36-.88.4-.28.04-.71-.09-1.28-.4-1.07-.57-2.09-.43-3.07.4-.29.25-.63.35-1.01.3l-.96-.11c-.31-.03-.54.08-.7.34-.71,1.16-1.75,1.42-3.1.78-.13-.06-.2-.18-.23-.35-.05-.27-.14-.28-.28-.02-.54,1.01-1.36,1.34-2.45,1-.37-.11-.61.02-.72.39-.17.54-.55.79-1.15.76-.43-.02-.75.16-.97.53l-.34.59c-.17.3-.41.36-.7.17-.63-.39-1.32-.43-2.07-.11-1.43.61-2.95.97-4.55,1.06-.38.02-.57-.16-.57-.55v-1.07c0-.14-.12-.25-.26-.24-.08,0-.16.04-.2.11-.1.18-.26.2-.49.07-.16-.09-.21-.3-.11-.45,0,0,0-.01.01-.02,1.6-2.35,1.3-4.19-.89-5.52-.95-.57-.92-1.09.08-1.56.63-.29,1.27-.44,1.92-.44.33,0,.39-.12.17-.37-.16-.19-.22-.38-.18-.58.06-.31-.07-.43-.38-.38-.31.06-.59.03-.86-.08-.28-.12-.4-.33-.37-.64.06-.55.32-.82.77-.79.34.02.56-.13.65-.45.23-.75.07-1.32-.49-1.71-.32-.22-.81-.33-1.48-.32-1.74.01-3.48,0-5.22-.02-.36,0-.71-.13-1-.35-.73-.57-1.57-.77-2.51-.59-.24.04-.5,0-.71-.14l-2.75-1.85c-.19-.13-.42-.16-.64-.1-1.05.31-2.07.27-3.06-.1-.36-.14-.71-.11-1.04.08-.73.43-1.51.64-2.33.62-.29,0-.55-.09-.79-.24-.67-.41-1.33-.43-2-.05-.27.15-.5.11-.71-.12-.94-1.08-1.24-2.21-2.34-3.13-1.04-.87-1.97-1.85-2.79-2.92-.99-1.31-1.92-2.25-2.77-2.84-1.4-.95-2.83-1.86-4.3-2.71-.31-.18-.57-.43-.77-.74l-.75-1.2c-.06-.1-.19-.13-.29-.06-.04.03-.08.07-.09.12-.05.2-.19.31-.41.34-.1.01-.19-.05-.22-.15-.17-.65-.58-.94-1.21-.86-.29.04-.59-.09-.76-.33-.91-1.24-2.01-2.27-3.28-3.09-.27-.17-.49-.4-.66-.68-.52-.9-1.3-1.46-2.33-1.67-.31-.06-.56-.22-.75-.48-.35-.48-.82-.73-1.41-.74-.14,0-.27.04-.4.12-.12.07-.23.16-.33.25-.21.2-.38.17-.52-.08l-.77-1.42-.15-61.2Z"/>
  <path class="cls-5" d="m285.19,339.96l.77,1.42c.14.25.31.28.52.08.1-.09.21-.18.33-.25.13-.08.26-.12.4-.12.59.01,1.06.26,1.41.74.19.26.44.42.75.48,1.03.21,1.81.77,2.33,1.67.17.28.39.51.66.68,1.27.82,2.37,1.85,3.28,3.09.17.24.47.37.76.33.63-.08,1.04.21,1.21.86.03.1.12.16.22.15.22-.03.36-.14.41-.34.03-.11.14-.18.26-.15.05.01.1.05.12.09l.75,1.2c.2.31.46.56.77.74,1.47.85,2.9,1.76,4.3,2.71.85.59,1.78,1.53,2.77,2.84.82,1.07,1.75,2.05,2.79,2.92,1.1.92,1.4,2.05,2.34,3.13.21.23.44.27.71.12.67-.38,1.33-.36,2,.05.24.15.5.23.79.24.82.02,1.6-.19,2.33-.62.33-.19.68-.22,1.04-.08.99.37,2.01.41,3.06.1.22-.06.45-.03.64.1l2.75,1.85c.21.13.47.18.71.14.94-.18,1.78.02,2.51.59.29.22.64.34,1,.35,1.74.03,3.48.03,5.22.02.67,0,1.16.1,1.48.32.56.39.72.96.49,1.71-.09.32-.31.47-.65.45-.45-.03-.71.24-.77.79-.03.31.09.52.37.64.27.11.55.14.86.08.31-.05.44.07.38.38-.04.2.02.39.18.58.22.25.16.37-.17.37-.65,0-1.29.15-1.92.44-1,.47-1.03.99-.08,1.56,2.19,1.33,2.49,3.17.89,5.52-.1.15-.07.36.08.46,0,0,.01,0,.02.01.23.13.39.11.49-.07.07-.12.23-.15.35-.07.07.04.11.12.11.2v1.07c0,.39.19.57.57.55,1.6-.09,3.12-.45,4.55-1.06.75-.32,1.44-.28,2.07.11.29.19.53.13.7-.17l.34-.59c.22-.37.54-.55.97-.53.6.03.98-.22,1.15-.76.11-.37.35-.5.72-.39,1.09.34,1.91,0,2.45-1,.14-.26.23-.25.28.02.03.17.1.29.23.35,1.35.64,2.39.38,3.1-.78.16-.26.39-.37.7-.34l.96.11c.38.05.72-.05,1.01-.3.98-.83,2-.97,3.07-.4.57.31,1,.44,1.28.4.31-.04.61-.17.88-.4.25-.21.53-.3.85-.29,1.35.06,2.49-.35,3.41-1.23.75-.73,1.84-.99,2.85-.69l5.02,1.52c.15.05.15.11.01.18-.08.04-.16.08-.25.12-.06.03-.08.1-.05.16,0,.01.02.03.03.04,3.46,2.8,7.57,1.41,11.19,4.34.29.24.6.25.91.03.25-.18.57-.26.95-.23.75.05,1.34.15,1.48.26.45.39.96.66,1.54.81.22.05.32.19.31.42,0,.17.05.32.17.45.07.08.19.08.27.01.04-.04.07-.09.06-.15-.07-.97.07-1.76.4-2.38.09,8.59.12,17.17.08,25.74-.04,9.23-.6,15.85-1.68,19.85-4.07,15.02-17.32,28.05-33.19,30.41-1.77.26-6.92.38-15.46.35-18.35-.05-36.72-.05-55.13.01-.47,0-.85-.38-.85-.85l.03-113.27Z"/>
  <path class="cls-5" d="m60.12,348.5c-.07,1.93.15,3.74.68,5.41.11.37.34.46.68.27.41-.23.8-.29,1.18-.2.33.08.6.33.81.74.28.54.49,1.1.62,1.69.07.33.4.54.73.46.1-.02.19-.07.27-.13.18-.15.21-.31.09-.47-.05-.06-.04-.12.01-.17.25-.28.48-.33.69-.16,1.01.84,1.87,1.94,2.57,3.3.15.29.37.49.67.61,2.38.95,3.67,2.7,3.88,5.25.03.32.19.54.48.65.54.21.99.5,1.36.87,1.65,1.67,3.39,3.25,5.22,4.73.25.2.39.46.42.79.05.53.29.95.73,1.26.21.15.31.36.29.63-.03.39.1.7.37.93.54.47.98.87,1.32,1.21,1.33,1.31.89,2.72,3.1,3.52.32.12.56.33.71.63.82,1.65,1.92,3.06,3.29,4.24.21.18.36.4.45.66.37,1.08,1.15,1.65,2.32,1.72.3.02.57.2.71.47.55,1.09,1.44,1.66,2.65,1.71.33.01.58.15.77.41,1.1,1.5,3.04,1.31,4.49,2.07,1.21.63,1.99.98,2.34,1.07,2.05.49,4.13.81,6.24.97.31.03.6.13.85.32.41.31.83.45,1.27.44,2.37-.1,4.5.16,6.4.77.33.11.65.11.98,0,.98-.33,1.86-.31,2.64.07.31.15.64.25.99.28l5.91.55c.22.03.36-.07.43-.29.29-.93.85-1.62,1.68-2.07.27-.15.45-.37.53-.66.15-.5.5-.87,1.05-1.12.29-.13.59-.18.9-.14,2.66.29,5.32.64,7.98,1.05.33.05,1.48.32,3.45.82,1.58.39,3.06.32,4.68.81,2.11.65,4.24.62,6.41-.07.29-.1.59-.09.88.02,1.38.53,2.81.64,4.3.33.19-.04.35-.13.5-.26.07-.07.15-.14.23-.22.11-.09.22-.11.35-.06.58.26,1.18.38,1.81.36.31,0,.51-.16.58-.47l.52-2.11.15,61.03c0,.75-.37,1.12-1.11,1.12-20.75.06-41.24.06-61.49,0-19.93-.07-36.41-12.19-41.32-31.27-1.05-4.06-1.6-10.54-1.65-19.45-.12-18.31-.13-36.61-.04-54.92Z"/>
  <path class="cls-6" d="m253.25,353.96l.03,99.48c0,.2-.17.37-.37.37l-54.05-.07c-.42,0-.76-.34-.76-.76h0l-.03-98.87,55.18-.15Z"/>
</svg>