<?xml version="1.0" encoding="UTF-8"?>
<svg id="_Шар_1" data-name="Шар 1" xmlns="http://www.w3.org/2000/svg" viewBox="0 0 161.6 202.09">
  <defs>
    <style>
      .cls-1, .cls-2, .cls-3, .cls-4, .cls-5, .cls-6, .cls-7 {
        stroke-width: 0px;
      }

      .cls-1, .cls-3 {
        fill: #2f0363;
      }

      .cls-2 {
        fill: #7ba1ff;
      }

      .cls-2, .cls-3, .cls-5, .cls-6 {
        fill-rule: evenodd;
      }

      .cls-4, .cls-6 {
        fill: #654fc1;
      }

      .cls-5, .cls-7 {
        fill: #dbb4fa;
      }
    </style>
  </defs>
  <path class="cls-2" d="m9.18,66.71c-6.95-14.61-1.62-32.5,7.23-45.1C24.13,10.63,36.17,1.44,49.88.15c9.49-.9,18.22,2.19,25.58,8.12,2.11,1.71,3.88,3.88,5.36,6.24,1.48-2.35,3.25-4.53,5.36-6.24C93.51,2.37,102.3-.69,111.73.14c13.82,1.21,25.73,10.43,33.49,21.47,8.85,12.59,14.18,30.48,7.24,45.09,4.29,2.55,6.7,6.6,7.79,11.98l.2,1.02,1.14,34.14h-7.8s.42,70,.42,70l-.17,1.03c-.76,4.66-2.02,8.7-5.56,12.03-3.09,2.91-6.4,3.89-10.41,4.81l-1.38.32-35.19.03v.02h-43.89v-.09l-32.28-.17-1.35-.31c-4.01-.93-7.32-1.91-10.41-4.81-3.54-3.33-4.8-7.38-5.56-12.03l-.17-1.04.42-69.76H0s1.14-34.15,1.14-34.15l.21-1.02c1.09-5.4,3.52-9.47,7.84-12.01Z"/>
  <path class="cls-3" d="m80.82,21.61c1.93-4.44,4.37-8.31,7.43-10.78,6.66-5.37,14.61-8.18,23.2-7.42,12.82,1.13,23.9,9.86,31.09,20.09,8.25,11.74,13.52,28.78,6.67,42.37-.41.81-.85,1.59-1.33,2.34,4.94,1.68,7.91,5.01,9.15,11.12l.15.75,1.02,30.48h-7.71s.43,73.03.43,73.03l-.12.76c-.63,3.87-1.59,7.36-4.57,10.16-2.62,2.46-5.54,3.23-8.9,4l-1.02.24-38.1.04h0s-37.31.01-37.31.01v-.07l-35.18-.19-1-.23c-3.36-.78-6.28-1.54-8.9-4-2.98-2.8-3.94-6.29-4.57-10.16l-.12-.76.43-72.79H3.4s1.02-30.48,1.02-30.48l.15-.75c1.24-6.14,4.22-9.46,9.2-11.14-.48-.75-.93-1.53-1.34-2.35-6.85-13.59-1.58-30.63,6.67-42.37C31.76,5.5,54.34-4.53,73.39,10.84c3.06,2.46,5.49,6.34,7.43,10.78Z"/>
  <path class="cls-2" d="m26.52,190.7l46.47.24v-80.95l-52.46.14-.47,74.21c.86,5.05,1.69,5.31,6.45,6.35Z"/>
  <path class="cls-2" d="m12.64,102.73l61.58.03.34-24.96c-18.3,0-37.35-.08-55.66-.09-3.55.57-4.82,1.06-5.58,4.82l-.68,20.2Z"/>
  <path class="cls-2" d="m134.99,190.89l-48.15.05v-80.95l54.14.14.46,74.39c-.87,5.06-1.69,5.32-6.46,6.37Z"/>
  <path class="cls-2" d="m148.41,102.7l-61.58.03-.34-24.96c18.31,0,37.35-.08,55.66-.09,3.55.57,4.82,1.06,5.58,4.82l.68,20.21Z"/>
  <path class="cls-6" d="m71.6,70.42c-7.76-29.69-18.85-29.81-26.74-29.69-8.61.13-12.39,5.11-15.71,14.47.09-19.39,36.4-51.84,45.78,15.36-1.01-.04-2.13-.08-3.33-.14Z"/>
  <path class="cls-5" d="m74.93,70.57c-10.16-.34-30.87-2.11-39.52-5.49-24.04-9.41,28.01-76.95,39.52,5.49Zm2.3,4.41c-13.67,1.56-36.27,1.74-47.67-3.39C-1.27,57.72,37.32-4.86,67.34,19.34c8.35,6.73,14.12,41.34,9.89,55.64Z"/>
  <rect class="cls-4" x="61.22" y="77.8" width="13.67" height="113.14"/>
  <path class="cls-6" d="m86.16,70.57c10.16-.34,30.87-2.11,39.52-5.49.34-.13.67-.29.99-.44.04-.02.09-.04.13-.07.3-.15.57-.32.84-.49.05-.03.09-.06.15-.1.26-.18.51-.36.75-.55.03-.03.07-.06.11-.09.24-.21.47-.42.69-.65h0c.21-.23.41-.48.6-.72.02-.03.05-.06.07-.09.18-.24.34-.48.49-.74.03-.04.05-.08.08-.13.15-.25.28-.52.4-.78.02-.04.04-.08.05-.12.12-.28.23-.57.33-.86,0,0,0-.02,0-.02.1-.29.18-.59.25-.9,0-.03.02-.07.03-.11.07-.3.12-.6.17-.91,0-.06.02-.11.02-.17.04-.3.07-.61.09-.93,0-.06,0-.11,0-.17.02-.32.02-.64.02-.97,0-.03,0-.07,0-.1,0-.31-.02-.62-.05-.94,0-.06,0-.12-.02-.18-.03-.32-.07-.64-.11-.96-.01-.09-.02-.17-.04-.26-.05-.31-.1-.62-.16-.94-.02-.1-.04-.19-.06-.29-.07-.31-.14-.61-.22-.92-.02-.09-.05-.19-.08-.29-.07-.26-.15-.52-.23-.78-.04-.11-.07-.21-.1-.32-.09-.29-.19-.58-.3-.88-.05-.14-.1-.27-.15-.41-.1-.28-.21-.56-.33-.83-.07-.15-.13-.3-.19-.45-.09-.2-.18-.4-.27-.6-.1-.23-.21-.45-.32-.68-.08-.16-.16-.32-.24-.47-.14-.27-.28-.54-.43-.81-.07-.14-.15-.27-.22-.4-.11-.19-.22-.38-.33-.57h0c-.25-.43-.51-.84-.78-1.25-.04-.07-.09-.13-.13-.2-.24-.35-.48-.7-.73-1.05l-.11-.14c-.29-.4-.59-.78-.89-1.16h0c-3.08-3.83-7-6.92-11.19-8.29,26.57,20.5-7.63,34.6-27.51,35.93h0c-.2,1.22-.39,2.47-.57,3.76Z"/>
  <path class="cls-5" d="m86.16,70.57c10.16-.34,30.87-2.11,39.52-5.49,24.05-9.41-28.01-76.95-39.52,5.49Zm-2.3,4.41c13.67,1.56,36.27,1.74,47.66-3.39,30.84-13.86-7.76-76.45-37.78-52.25-8.35,6.73-14.12,41.34-9.88,55.64Z"/>
  <rect class="cls-1" x="88.74" y="77.8" width="3.38" height="113.14"/>
  <rect class="cls-7" x="71.34" y="77.8" width="17.41" height="113.14"/>
</svg>