<?xml version="1.0" encoding="UTF-8"?>
<svg id="_Шар_1" data-name="Шар 1" xmlns="http://www.w3.org/2000/svg" viewBox="0 0 461.41 497.79">
  <defs>
    <style>
      .cls-1 {
        stroke: #816c6f;
      }

      .cls-1, .cls-2, .cls-3, .cls-4, .cls-5, .cls-6, .cls-7, .cls-8, .cls-9 {
        fill: none;
        stroke-width: 2px;
      }

      .cls-10 {
        fill: #bca1ff;
      }

      .cls-10, .cls-11, .cls-12, .cls-13, .cls-14 {
        stroke-width: 0px;
      }

      .cls-2 {
        stroke: #81795e;
      }

      .cls-11 {
        fill: #654fc1;
      }

      .cls-15 {
        fill: #2f0363;
        stroke: #90c0e9;
        stroke-miterlimit: 10;
        stroke-width: 12px;
      }

      .cls-3 {
        stroke: #05c1b3;
      }

      .cls-12 {
        fill: #7b9bff;
      }

      .cls-13 {
        fill: #8568e0;
      }

      .cls-4 {
        stroke: #ff8e68;
      }

      .cls-5 {
        stroke: #81abad;
      }

      .cls-6 {
        stroke: #72a6ac;
      }

      .cls-14 {
        fill: #7ba1ff;
      }

      .cls-7 {
        stroke: #04908d;
      }

      .cls-8 {
        stroke: #03888b;
      }

      .cls-9 {
        stroke: #ffbfb7;
      }
    </style>
  </defs>
  <g>
    <path class="cls-6" d="m360.01,118.79c1.1-1.5,2.2-2.9,3.3-4.4,6.3-8,10.8-17,13.4-26.9,5.4-20.3-1.8-46.3-16.9-61.5-35-35.3-91.5-21.4-110.2,23.5-.2.5-.7.7-1.2.6-2.8-.8-5.6-1.4-8.2-2-9.3-2.1-18.4-1.5-27.1,2-.4.2-.9,0-1-.4-8.9-19.4-25.9-35.5-46.6-41.2-19.7-5.4-43.7-.7-59.2,13.2-29.6,26.5-30.2,67.2-5.4,97.1.1.2.1.4-.1.6-.1.1-.2.1-.3.1-13.5-.2-28-1.2-41.2,3.2-30,10.1-52.1,41-53.3,72.5-.4,9.9-.2,17.3.4,22.2,2.5,18.8,10.9,34.3,25.4,46.4.7.6,1.1,1.4,1.1,2.4.7,51.7.1,103.5.1,155.2,0,33.4,25.2,62,57.3,69.2,3.8.9,8.9,1.3,15.2,1.3h244.8c8.4,0,14.4-.3,18-.9,25.5-4.2,46-22.9,55.3-46.6,2.9-7.5,4.4-14.4,4.4-20.7.1-49.5.1-99,0-148.5,0-2.7.3-5.9.2-8.8,0-.7.3-1.4.8-1.9,4.9-4.6,10.1-9.9,13.7-15.3,6.2-9.3,10.1-19.7,11.5-31,3.8-29.3-3-56.7-24.3-77.9-7.9-7.9-16.3-13.5-25.2-16.8-15.2-5.6-29.5-4.1-44.7-4.1-.2-.1-.2-.2,0-.6" vector-effect="non-scaling-stroke"/>
    <path class="cls-5" d="m338.71,93.79c8.3-13.4,11.1-32.2-1.5-44.3-15.4-14.9-39.4-12.3-52.5,4.1-4.4,5.5-8.5,11.1-12.4,16.9-.1.2-.2.5-.1.8,1.7,5.5,4.3,11.5,5.2,16.6,1.4,8.2.5,16.2-2.6,24.1-.2.4,0,.9.5,1.1.1,0,.2.1.3.1,9.7-.1,19.3-.1,28.7-.1,15.1-.2,26.6-6.6,34.4-19.3" vector-effect="non-scaling-stroke"/>
    <path class="cls-5" d="m185.91,112.39c-5.3-14.8-3.1-27,4-40.4.1-.3.1-.6-.1-.8-6.5-7.9-13.9-18.7-20.6-24-15.5-12.5-42-8.8-50.8,10.2-11.1,24.2,11.5,55.4,37.3,55.6,10,.1,20,.1,29.8,0,.4,0,.5-.2.4-.6" vector-effect="non-scaling-stroke"/>
    <path class="cls-5" d="m228.11,114.39c9.1,1.4,17.7-5.1,19.1-14.5h0c1.4-9.4-4.8-18.1-13.9-19.5h0c-9.1-1.4-17.7,5.1-19.1,14.5-1.4,9.4,4.8,18.1,13.9,19.5" vector-effect="non-scaling-stroke"/>
    <path class="cls-5" d="m202.71,233.79c0,.4.3.8.8.8h0l53.9.1c.4,0,.8-.3.8-.8h0l-.1-81.8c0-.4-.3-.8-.8-.8h0l-54-.2c-.4,0-.8.3-.8.8l.2,81.9" vector-effect="non-scaling-stroke"/>
    <path class="cls-1" d="m289.61,186.09l.3,47c0,1,.5,1.4,1.5,1.4,39.3,0,78.1.1,116.6,0,1.1,0,2.1-.4,2.9-1.1,8.8-8.1,12.4-19.9,11.8-31.6-.2-4.8-.5-10.1-2-15.8" vector-effect="non-scaling-stroke"/>
    <path class="cls-2" d="m420.71,186.19c-5.6-17.2-19.3-29.9-36.8-33.7-3.7-.8-10.4-1.2-19.9-1.2-24.5,0-49.1,0-73.7-.1-.3,0-.5.2-.5.5l-.2,34.4" vector-effect="non-scaling-stroke"/>
    <path class="cls-4" d="m420.71,186.19c-.3.8-1,.9-2.2.4-.8-.3-1.4-.5-2-.5-28.1-.3-56.3-.1-84.4-.2-14.2-.1-28.3.1-42.4.3" vector-effect="non-scaling-stroke"/>
    <path class="cls-1" d="m40.61,185.99c-4.2,16.5-3.1,33.4,8.4,46.4,1,1.2,2.5,2.2,3.9,2.2,36.3-.1,72.5,0,108.8.1,2.9,0,5.8,0,8.6-.1.3,0,.6-.3.6-.6l-.3-48.2" vector-effect="non-scaling-stroke"/>
    <path class="cls-2" d="m170.71,185.79v-34.1c0-.2-.2-.4-.3-.4h0c-26.1,0-52.2.1-78.3.1-4.8,0-9.9-.1-14.4.8-12.3,2.4-22.1,8.5-29.3,18.4-3.2,4.4-5.8,9.5-7.7,15.3" vector-effect="non-scaling-stroke"/>
    <path class="cls-4" d="m170.71,185.79c-.2.6-.5.8-1,.7-1.2-.3-2.1-.6-3.4-.6-42-.1-83.9,0-125.7.2" vector-effect="non-scaling-stroke"/>
    <path class="cls-1" d="m202.91,359.29v98.9c0,.4.3.8.8.8h0l54.1.1c.2,0,.4-.2.4-.4v-99.5" vector-effect="non-scaling-stroke"/>
    <path class="cls-5" d="m258.11,359.09l-.1-92.1c0-.3-.2-.5-.5-.5l-53.8-.2c-.5,0-1,.4-1,1h0l.2,92" vector-effect="non-scaling-stroke"/>
    <path class="cls-9" d="m258.11,359.09l-55.2.2" vector-effect="non-scaling-stroke"/>
    <path class="cls-7" d="m64.91,284.09v69.6" vector-effect="non-scaling-stroke"/>
    <path class="cls-8" d="m64.91,353.59c-.1,18.3-.1,36.6,0,54.9.1,8.9.6,15.4,1.6,19.4,4.9,19.1,21.4,31.2,41.3,31.3,20.2.1,40.7.1,61.5,0,.7,0,1.1-.4,1.1-1.1l-.1-61" vector-effect="non-scaling-stroke"/>
    <path class="cls-7" d="m170.41,397.09l.3-113.8" vector-effect="non-scaling-stroke"/>
    <path class="cls-8" d="m170.71,283.29l-.1-16c0-.5-.2-.7-.7-.7l-104.3.1c-.5,0-.8.3-.8.8v16.6" vector-effect="non-scaling-stroke"/>
    <path class="cls-3" d="m170.71,283.29c-3.3,0-6.6,0-9.9.2-8.4.5-16.7.5-24.9.5-23.7-.2-47.3-.3-71,0" vector-effect="non-scaling-stroke"/>
    <path class="cls-3" d="m170.41,397.09l-.5,2.1c-.1.3-.3.5-.6.5-.6,0-1.2-.1-1.8-.4-.1-.1-.2,0-.4.1-.1.1-.2.2-.2.2-.1.1-.3.2-.5.3-1.5.3-2.9.2-4.3-.3-.3-.1-.6-.1-.9,0-2.2.7-4.3.7-6.4.1-1.6-.5-3.1-.4-4.7-.8-2-.5-3.1-.8-3.5-.8-2.7-.4-5.3-.8-8-1-.3,0-.6,0-.9.1-.6.2-.9.6-1,1.1-.1.3-.3.5-.5.7-.8.4-1.4,1.1-1.7,2.1-.1.2-.2.3-.4.3l-5.9-.5c-.3,0-.7-.1-1-.3-.8-.4-1.7-.4-2.6-.1-.3.1-.7.1-1,0-1.9-.6-4-.9-6.4-.8-.4,0-.9-.1-1.3-.4-.3-.2-.5-.3-.9-.3-2.1-.2-4.2-.5-6.2-1-.3-.1-1.1-.4-2.3-1.1-1.4-.8-3.4-.6-4.5-2.1-.2-.3-.4-.4-.8-.4-1.2-.1-2.1-.6-2.6-1.7-.1-.3-.4-.5-.7-.5-1.2-.1-1.9-.6-2.3-1.7-.1-.3-.2-.5-.4-.7-1.4-1.2-2.5-2.6-3.3-4.2-.2-.3-.4-.5-.7-.6-2.2-.8-1.8-2.2-3.1-3.5-.3-.3-.8-.7-1.3-1.2-.3-.2-.4-.5-.4-.9,0-.3-.1-.5-.3-.6-.4-.3-.7-.7-.7-1.3,0-.3-.2-.6-.4-.8-1.8-1.5-3.6-3.1-5.2-4.7-.4-.4-.8-.7-1.4-.9-.3-.1-.5-.3-.5-.6-.2-2.5-1.5-4.3-3.9-5.2-.3-.1-.5-.3-.7-.6-.7-1.4-1.6-2.5-2.6-3.3-.2-.2-.4-.1-.7.2q-.1.1,0,.2c.1.2.1.3-.1.5-.3.2-.7.2-.9-.1-.1-.1-.1-.2-.1-.3-.1-.6-.3-1.2-.6-1.7-.2-.4-.5-.7-.8-.7-.4-.1-.8,0-1.2.2-.3.2-.6.1-.7-.3-.5-1.7-.8-3.5-.7-5.4" vector-effect="non-scaling-stroke"/>
    <path class="cls-7" d="m289.91,283.89l.2,61.2" vector-effect="non-scaling-stroke"/>
    <path class="cls-8" d="m290.01,345.09v113.3c0,.5.4.8.8.8,18.4-.1,36.8-.1,55.1,0,8.5,0,13.7-.1,15.5-.3,15.9-2.4,29.1-15.4,33.2-30.4,1.1-4,1.6-10.6,1.7-19.8,0-8.6,0-17.1-.1-25.7" vector-effect="non-scaling-stroke"/>
    <path class="cls-7" d="m396.21,382.89v-99" vector-effect="non-scaling-stroke"/>
    <path class="cls-8" d="m396.21,283.89v-16.2c0-.5-.3-.8-.8-.8l-103.7-.3c-.8,0-1.5.7-1.5,1.5l-.3,15.9" vector-effect="non-scaling-stroke"/>
    <path class="cls-3" d="m396.21,283.89c-3.9-1-8.6-.3-11.7-.2-14.2,0-28.4,0-42.7.4-3.4.1-6.5.1-9.3.1-14.1-.2-28.4-.2-42.7-.2" vector-effect="non-scaling-stroke"/>
    <path class="cls-3" d="m396.21,382.89c-.3.6-.5,1.4-.4,2.4,0,.1-.1.2-.2.2s-.1,0-.2-.1c-.1-.1-.2-.3-.2-.5s-.1-.4-.3-.4c-.6-.1-1.1-.4-1.5-.8-.1-.1-.7-.2-1.5-.3-.4,0-.7,0-1,.2s-.6.2-.9,0c-3.6-2.9-7.7-1.5-11.2-4.3-.1,0-.1-.1,0-.2h0c.1,0,.2-.1.2-.1q.1-.1,0-.2l-5-1.5c-1-.3-2.1,0-2.8.7-.9.9-2.1,1.3-3.4,1.2-.3,0-.6.1-.9.3-.3.2-.6.4-.9.4s-.7-.1-1.3-.4c-1.1-.6-2.1-.4-3.1.4-.3.2-.6.3-1,.3l-1-.1c-.3,0-.5.1-.7.3-.7,1.2-1.7,1.4-3.1.8-.1-.1-.2-.2-.2-.3,0-.3-.1-.3-.3,0-.5,1-1.4,1.3-2.4,1-.4-.1-.6,0-.7.4-.2.5-.5.8-1.1.8-.4,0-.8.2-1,.5l-.3.6c-.2.3-.4.4-.7.2-.6-.4-1.3-.4-2.1-.1-1.4.6-3,1-4.5,1.1-.4,0-.6-.2-.6-.5v-1.1c0-.1-.1-.2-.3-.2-.1,0-.2,0-.2.1-.1.2-.3.2-.5.1-.2-.1-.2-.3-.1-.5h0c1.6-2.3,1.3-4.2-.9-5.5-.9-.6-.9-1.1.1-1.6.6-.3,1.3-.4,1.9-.4.3,0,.4-.1.2-.4-.2-.2-.2-.4-.2-.6.1-.3-.1-.4-.4-.4-.3.1-.6,0-.9-.1-.3-.1-.4-.3-.4-.6.1-.6.3-.8.8-.8.3,0,.6-.1.7-.5.2-.8.1-1.3-.5-1.7-.3-.2-.8-.3-1.5-.3h-5.2c-.4,0-.7-.1-1-.3-.7-.6-1.6-.8-2.5-.6-.2,0-.5,0-.7-.1l-2.8-1.9c-.2-.1-.4-.2-.6-.1-1.1.3-2.1.3-3.1-.1-.4-.1-.7-.1-1,.1-.7.4-1.5.6-2.3.6-.3,0-.6-.1-.8-.2-.7-.4-1.3-.4-2,0-.3.2-.5.1-.7-.1-.9-1.1-1.2-2.2-2.3-3.1-1-.9-2-1.8-2.8-2.9-1-1.3-1.9-2.3-2.8-2.8-1.4-1-2.8-1.9-4.3-2.7-.3-.2-.6-.4-.8-.7l-.8-1.2c-.1-.1-.2-.1-.3-.1l-.1.1c-.1.2-.2.3-.4.3-.1,0-.2-.1-.2-.2-.2-.7-.6-.9-1.2-.9-.3,0-.6-.1-.8-.3-.9-1.2-2-2.3-3.3-3.1-.3-.2-.5-.4-.7-.7-.5-.9-1.3-1.5-2.3-1.7-.3-.1-.6-.2-.8-.5-.4-.5-.8-.7-1.4-.7-.1,0-.3,0-.4.1-.1.1-.2.2-.3.2-.2.2-.4.2-.5-.1l-.8-1.4" vector-effect="non-scaling-stroke"/>
  </g>
  <path class="cls-15" d="m360.21,119.29c15.2,0,29.5-1.6,44.7,4.1,8.9,3.3,17.2,8.9,25.2,16.8,21.3,21.2,28.1,48.7,24.3,77.9-1.5,11.3-5.3,21.7-11.5,31-3.6,5.4-8.8,10.6-13.7,15.3-.5.5-.8,1.1-.8,1.9.1,2.9-.2,6.1-.2,8.8.1,49.5,0,99,0,148.5,0,6.4-1.5,13.3-4.4,20.7-9.3,23.7-29.8,42.5-55.3,46.6-3.6.6-9.6.9-18,.9H105.71c-6.3,0-11.4-.4-15.2-1.3-32.1-7.2-57.3-35.8-57.3-69.2,0-51.7.6-103.5-.1-155.2,0-1-.4-1.8-1.1-2.4-14.5-12.1-22.9-27.6-25.4-46.4-.6-4.9-.8-12.3-.4-22.2,1.2-31.6,23.3-62.4,53.3-72.5,13.2-4.5,27.7-3.4,41.2-3.2.2,0,.4-.2.4-.4,0-.1,0-.2-.1-.3-24.8-29.9-24.2-70.6,5.4-97.1,15.5-13.9,39.5-18.6,59.2-13.2,20.7,5.7,37.7,21.9,46.6,41.2.2.4.6.6,1,.4,8.8-3.4,17.8-4.1,27.1-2,2.6.6,5.3,1.3,8.2,2,.5.1,1-.1,1.2-.6,18.7-44.9,75.2-58.7,110.2-23.5,15.1,15.2,22.3,41.3,16.9,61.5-2.6,9.9-7.1,18.8-13.4,26.9-1.1,1.4-2.2,2.9-3.3,4.4-.3.5-.3.6.1.6Zm-21.5-25.5c8.3-13.4,11.1-32.2-1.5-44.3-15.4-14.9-39.4-12.3-52.5,4.1-4.4,5.5-8.5,11.1-12.4,16.9-.1.2-.2.5-.1.8,1.7,5.5,4.3,11.5,5.2,16.6,1.4,8.2.5,16.2-2.6,24.1-.2.4,0,.9.5,1.1.1,0,.2.1.3.1,9.7-.1,19.3-.1,28.7-.1,15.1-.2,26.6-6.6,34.4-19.3Zm-152.8,18.6c-5.3-14.8-3.1-27,4-40.4.1-.3.1-.6-.1-.8-6.5-7.9-13.9-18.7-20.6-24-15.5-12.5-42-8.8-50.8,10.2-11.1,24.2,11.5,55.4,37.3,55.6,10,.1,20,.1,29.8,0,.4,0,.5-.2.4-.6Zm42.2,2c9.1,1.4,17.7-5.1,19.1-14.5h0c1.4-9.4-4.8-18.1-13.9-19.5h0c-9.1-1.4-17.7,5.1-19.1,14.5-1.4,9.4,4.8,18.1,13.9,19.5Zm-25.4,119.4c0,.4.3.8.8.8h0l53.9.1c.4,0,.8-.3.8-.8h0l-.1-81.8c0-.4-.3-.8-.8-.8h0l-54-.2c-.4,0-.8.3-.8.8l.2,81.9Zm86.9-47.7l.3,47c0,1,.5,1.4,1.5,1.4,39.3,0,78.1.1,116.6,0,1.1,0,2.1-.4,2.9-1.1,8.8-8.1,12.4-19.9,11.8-31.6-.2-4.8-.5-10.1-2-15.8-5.6-17.2-19.3-29.9-36.8-33.7-3.7-.8-10.4-1.2-19.9-1.2-24.5,0-49.1,0-73.7-.1-.3,0-.5.2-.5.5l-.2,34.6Zm-249-.1c-4.2,16.5-3.1,33.4,8.4,46.4,1,1.2,2.5,2.2,3.9,2.2,36.3-.1,72.5,0,108.8.1,2.9,0,5.8,0,8.6-.1.3,0,.6-.3.6-.6l-.3-48.2v-34.1c0-.2-.2-.4-.3-.4h0c-26.1,0-52.2.1-78.3.1-4.8,0-9.9-.1-14.4.8-12.3,2.4-22.1,8.5-29.3,18.4-3.2,4.5-5.8,9.6-7.7,15.4Zm162.3,173.3v98.9c0,.4.3.8.8.8h0l54.1.1c.2,0,.4-.2.4-.4v-99.5l-.1-92.1c0-.3-.2-.5-.5-.5l-53.8-.2c-.5,0-1,.4-1,1h0l.1,91.9Zm-138-75.2v69.6c-.1,18.3-.1,36.6,0,54.9.1,8.9.6,15.4,1.6,19.4,4.9,19.1,21.4,31.2,41.3,31.3,20.2.1,40.7.1,61.5,0,.7,0,1.1-.4,1.1-1.1l-.1-61,.3-113.8-.1-16c0-.5-.2-.7-.7-.7l-104.3.1c-.5,0-.8.3-.8.8l.2,16.5Zm225-.2l.2,61.2v113.3c0,.5.4.8.8.8,18.4-.1,36.8-.1,55.1,0,8.5,0,13.7-.1,15.5-.3,15.9-2.4,29.1-15.4,33.2-30.4,1.1-4,1.6-10.6,1.7-19.8,0-8.6,0-17.1-.1-25.7v-115.2c0-.5-.3-.8-.8-.8l-103.7-.3c-.8,0-1.5.7-1.5,1.5l-.4,15.7Z"/>
  <path class="cls-10" d="m338.71,93.79c-7.8,12.7-19.4,19.1-34.5,19.1-9.4,0-19,0-28.7.1-.5,0-.8-.4-.8-.8,0-.1,0-.2.1-.3,3.1-7.8,4-15.9,2.6-24.1-.8-5.1-3.5-11.1-5.2-16.6-.1-.3,0-.5.1-.8,3.9-5.8,8-11.4,12.4-16.9,13.1-16.4,37-19,52.5-4.1,12.6,12.2,9.8,31,1.5,44.4Z"/>
  <path class="cls-10" d="m189.91,71.99c-7.1,13.4-9.3,25.6-4,40.4.1.4,0,.6-.4.6h-29.8c-25.8-.1-48.4-31.4-37.3-55.6,8.8-19,35.3-22.7,50.8-10.2,6.6,5.4,14.1,16.2,20.6,24,.2.2.2.6.1.8Z"/>
  <ellipse class="cls-10" cx="230.69" cy="97.33" rx="17.2" ry="16.7" transform="translate(99.97 310.88) rotate(-81.4)"/>
  <path class="cls-14" d="m202.71,233.79l-.3-81.8c0-.4.3-.8.8-.8l54,.2c.4,0,.8.3.8.8h0l.1,81.8c0,.4-.3.8-.8.8h0l-53.9-.1c-.3-.2-.7-.5-.7-.9h0Z"/>
  <path class="cls-11" d="m420.71,186.19c-.3.8-1,.9-2.2.4-.8-.3-1.4-.5-2-.5-28.1-.3-56.3-.1-84.4-.2-14.2-.1-28.3.1-42.4.3l.2-34.4c0-.3.2-.5.5-.5,24.6.1,49.2.1,73.7.1,9.5,0,16.2.4,19.9,1.2,17.4,3.6,31,16.4,36.7,33.6Z"/>
  <path class="cls-11" d="m170.71,185.79c-.2.6-.5.8-1,.7-1.2-.3-2.1-.6-3.4-.6-42-.1-83.9,0-125.7.2,1.9-5.8,4.5-10.9,7.7-15.3,7.2-9.9,17-16,29.3-18.4,4.5-.9,9.5-.8,14.4-.8,26.1-.1,52.2-.1,78.3-.1.2,0,.3.2.3.3h0l.1,34Z"/>
  <path class="cls-12" d="m170.71,185.79l.3,48.2c0,.3-.3.6-.6.6-2.9.1-5.7.1-8.6.1-36.2-.1-72.5-.2-108.8-.1-1.5,0-2.9-1-3.9-2.2-11.5-13-12.6-29.8-8.4-46.4,41.8-.2,83.7-.2,125.7-.2,1.3,0,2.2.3,3.4.6.4.2.7,0,.9-.6Z"/>
  <path class="cls-12" d="m420.71,186.19c1.5,5.7,1.7,11,2,15.8.6,11.7-3,23.5-11.8,31.6-.8.7-1.8,1.1-2.9,1.1h-116.6c-1,0-1.5-.5-1.5-1.4l-.3-47c14.1-.3,28.2-.4,42.4-.3,28.2.1,56.3,0,84.4.2.6,0,1.3.2,2,.5,1.3.4,2,.3,2.3-.5Z"/>
  <path class="cls-14" d="m258.11,359.09l-55.2.2-.2-92c0-.5.4-1,1-1h0l53.8.2c.3,0,.5.2.5.5l.1,92.1Z"/>
  <path class="cls-13" d="m170.71,283.29c-3.3,0-6.6,0-9.9.2-8.4.5-16.7.5-24.9.5-23.7-.2-47.3-.3-71,0v-16.6c0-.5.3-.8.8-.8l104.3-.1c.5,0,.7.2.7.7v16.1Z"/>
  <path class="cls-13" d="m396.21,283.89c-3.9-1-8.6-.3-11.7-.2-14.2,0-28.4,0-42.7.4-3.4.1-6.5.1-9.3.1-14.1-.2-28.4-.2-42.7-.2l.3-15.9c0-.8.7-1.5,1.5-1.5l103.7.3c.5,0,.8.3.8.8l.1,16.2Z"/>
  <path class="cls-10" d="m170.71,283.29l-.3,113.8-.5,2.1c-.1.3-.3.5-.6.5-.6,0-1.2-.1-1.8-.4-.1-.1-.2,0-.4.1-.1.1-.2.2-.2.2-.1.1-.3.2-.5.3-1.5.3-2.9.2-4.3-.3-.3-.1-.6-.1-.9,0-2.2.7-4.3.7-6.4.1-1.6-.5-3.1-.4-4.7-.8-2-.5-3.1-.8-3.5-.8-2.7-.4-5.3-.8-8-1-.3,0-.6,0-.9.1-.6.2-.9.6-1,1.1-.1.3-.3.5-.5.7-.8.4-1.4,1.1-1.7,2.1-.1.2-.2.3-.4.3l-5.9-.5c-.3,0-.7-.1-1-.3-.8-.4-1.7-.4-2.6-.1-.3.1-.7.1-1,0-1.9-.6-4-.9-6.4-.8-.4,0-.9-.1-1.3-.4-.3-.2-.5-.3-.9-.3-2.1-.2-4.2-.5-6.2-1-.3-.1-1.1-.4-2.3-1.1-1.4-.8-3.4-.6-4.5-2.1-.2-.3-.4-.4-.8-.4-1.2-.1-2.1-.6-2.6-1.7-.1-.3-.4-.5-.7-.5-1.2-.1-1.9-.6-2.3-1.7-.1-.3-.2-.5-.4-.7-1.4-1.2-2.5-2.6-3.3-4.2-.2-.3-.4-.5-.7-.6-2.2-.8-1.8-2.2-3.1-3.5-.3-.3-.8-.7-1.3-1.2-.3-.2-.4-.5-.4-.9,0-.3-.1-.5-.3-.6-.4-.3-.7-.7-.7-1.3,0-.3-.2-.6-.4-.8-1.8-1.5-3.6-3.1-5.2-4.7-.4-.4-.8-.7-1.4-.9-.3-.1-.5-.3-.5-.6-.2-2.5-1.5-4.3-3.9-5.2-.3-.1-.5-.3-.7-.6-.7-1.4-1.6-2.5-2.6-3.3-.2-.2-.4-.1-.7.2q-.1.1,0,.2c.1.2.1.3-.1.5-.3.2-.7.2-.9-.1-.1-.1-.1-.2-.1-.3-.1-.6-.3-1.2-.6-1.7-.2-.4-.5-.7-.8-.7-.4-.1-.8,0-1.2.2-.3.2-.6.1-.7-.3-.5-1.7-.8-3.5-.7-5.4v-69.6c23.7-.4,47.3-.2,71,0,8.3,0,16.5,0,24.9-.5,3.3-.5,6.6-.6,9.9-.6Z"/>
  <path class="cls-10" d="m289.91,283.89c14.3,0,28.5,0,42.7.2,2.8,0,5.9,0,9.3-.1,14.2-.4,28.4-.4,42.7-.4,3,0,7.7-.7,11.7.2v99c-.3.6-.5,1.4-.4,2.4,0,.1-.1.2-.2.2s-.1,0-.2-.1c-.1-.1-.2-.3-.2-.5s-.1-.4-.3-.4c-.6-.1-1.1-.4-1.5-.8-.1-.1-.7-.2-1.5-.3-.4,0-.7,0-1,.2s-.6.2-.9,0c-3.6-2.9-7.7-1.5-11.2-4.3-.1,0-.1-.1,0-.2h0c.1,0,.2-.1.2-.1q.1-.1,0-.2l-5-1.5c-1-.3-2.1,0-2.8.7-.9.9-2.1,1.3-3.4,1.2-.3,0-.6.1-.9.3-.3.2-.6.4-.9.4s-.7-.1-1.3-.4c-1.1-.6-2.1-.4-3.1.4-.3.2-.6.3-1,.3l-1-.1c-.3,0-.5.1-.7.3-.7,1.2-1.7,1.4-3.1.8-.1-.1-.2-.2-.2-.3,0-.3-.1-.3-.3,0-.5,1-1.4,1.3-2.4,1-.4-.1-.6,0-.7.4-.2.5-.5.8-1.1.8-.4,0-.8.2-1,.5l-.3.6c-.2.3-.4.4-.7.2-.6-.4-1.3-.4-2.1-.1-1.4.6-3,1-4.5,1.1-.4,0-.6-.2-.6-.5v-1.1c0-.1-.1-.2-.3-.2-.1,0-.2,0-.2.1-.1.2-.3.2-.5.1-.2-.1-.2-.3-.1-.5h0c1.6-2.3,1.3-4.2-.9-5.5-.9-.6-.9-1.1.1-1.6.6-.3,1.3-.4,1.9-.4.3,0,.4-.1.2-.4-.2-.2-.2-.4-.2-.6.1-.3-.1-.4-.4-.4-.3.1-.6,0-.9-.1-.3-.1-.4-.3-.4-.6.1-.6.3-.8.8-.8.3,0,.6-.1.7-.5.2-.8.1-1.3-.5-1.7-.3-.2-.8-.3-1.5-.3h-5.2c-.4,0-.7-.1-1-.3-.7-.6-1.6-.8-2.5-.6-.2,0-.5,0-.7-.1l-2.8-1.9c-.2-.1-.4-.2-.6-.1-1.1.3-2.1.3-3.1-.1-.4-.1-.7-.1-1,.1-.7.4-1.5.6-2.3.6-.3,0-.6-.1-.8-.2-.7-.4-1.3-.4-2,0-.3.2-.5.1-.7-.1-.9-1.1-1.2-2.2-2.3-3.1-1-.9-2-1.8-2.8-2.9-1-1.3-1.9-2.3-2.8-2.8-1.4-1-2.8-1.9-4.3-2.7-.3-.2-.6-.4-.8-.7l-.8-1.2c-.1-.1-.2-.1-.3-.1l-.1.1c-.1.2-.2.3-.4.3-.1,0-.2-.1-.2-.2-.2-.7-.6-.9-1.2-.9-.3,0-.6-.1-.8-.3-.9-1.2-2-2.3-3.3-3.1-.3-.2-.5-.4-.7-.7-.5-.9-1.3-1.5-2.3-1.7-.3-.1-.6-.2-.8-.5-.4-.5-.8-.7-1.4-.7-.1,0-.3,0-.4.1-.1.1-.2.2-.3.2-.2.2-.4.2-.5-.1l-.8-1.4.1-61.3Z"/>
  <path class="cls-13" d="m290.01,345.09l.8,1.4c.1.3.3.3.5.1.1-.1.2-.2.3-.2.1-.1.3-.1.4-.1.6,0,1.1.3,1.4.7.2.3.4.4.8.5,1,.2,1.8.8,2.3,1.7.2.3.4.5.7.7,1.3.8,2.4,1.8,3.3,3.1.2.2.5.4.8.3.6-.1,1,.2,1.2.9,0,.1.1.2.2.2.2,0,.4-.1.4-.3,0-.1.1-.2.3-.1q.1,0,.1.1l.8,1.2c.2.3.5.6.8.7,1.5.9,2.9,1.8,4.3,2.7.9.6,1.8,1.5,2.8,2.8.8,1.1,1.8,2,2.8,2.9,1.1.9,1.4,2,2.3,3.1.2.2.4.3.7.1.7-.4,1.3-.4,2,0,.2.2.5.2.8.2.8,0,1.6-.2,2.3-.6.3-.2.7-.2,1-.1,1,.4,2,.4,3.1.1.2-.1.5,0,.6.1l2.8,1.9c.2.1.5.2.7.1.9-.2,1.8,0,2.5.6.3.2.6.3,1,.3h5.2c.7,0,1.2.1,1.5.3.6.4.7,1,.5,1.7-.1.3-.3.5-.7.5-.5,0-.7.2-.8.8,0,.3.1.5.4.6.3.1.6.1.9.1.3-.1.4.1.4.4,0,.2,0,.4.2.6.2.2.2.4-.2.4-.7,0-1.3.1-1.9.4-1,.5-1,1-.1,1.6,2.2,1.3,2.5,3.2.9,5.5-.1.1-.1.4.1.5h0c.2.1.4.1.5-.1.1-.1.2-.1.3-.1s.1.1.1.2v1.1c0,.4.2.6.6.5,1.6-.1,3.1-.4,4.5-1.1.8-.3,1.4-.3,2.1.1.3.2.5.1.7-.2l.3-.6c.2-.4.5-.5,1-.5.6,0,1-.2,1.1-.8.1-.4.4-.5.7-.4,1.1.3,1.9,0,2.4-1,.1-.3.2-.3.3,0,0,.2.1.3.2.3,1.4.6,2.4.4,3.1-.8.2-.3.4-.4.7-.3l1,.1c.4,0,.7-.1,1-.3,1-.8,2-1,3.1-.4.6.3,1,.4,1.3.4s.6-.2.9-.4c.2-.2.5-.3.9-.3,1.4.1,2.5-.3,3.4-1.2.8-.7,1.8-1,2.8-.7l5,1.5c.1,0,.2.1,0,.2-.1,0-.2.1-.2.1-.1,0-.1.1-.1.2h0c3.5,2.8,7.6,1.4,11.2,4.3.3.2.6.3.9,0,.3-.2.6-.3,1-.2.8,0,1.3.2,1.5.3.4.4,1,.7,1.5.8.2.1.3.2.3.4s0,.3.2.5c.1.1.2.1.3,0,0,0,.1-.1.1-.2-.1-1,.1-1.8.4-2.4.1,8.6.1,17.2.1,25.7,0,9.2-.6,15.8-1.7,19.8-4.1,15-17.3,28.1-33.2,30.4-1.8.3-6.9.4-15.5.3-18.3-.1-36.7,0-55.1,0-.5,0-.8-.4-.8-.8l-.1-112.9Z"/>
  <path class="cls-13" d="m64.91,353.59c-.1,1.9.2,3.7.7,5.4.1.4.3.5.7.3.4-.2.8-.3,1.2-.2.3.1.6.3.8.7.3.5.5,1.1.6,1.7.1.3.4.5.7.5.1,0,.2-.1.3-.1.2-.2.2-.3.1-.5v-.2c.3-.3.5-.3.7-.2,1,.8,1.9,1.9,2.6,3.3.1.3.4.5.7.6,2.4,1,3.7,2.7,3.9,5.2,0,.3.2.5.5.6.5.2,1,.5,1.4.9,1.7,1.7,3.4,3.2,5.2,4.7.3.2.4.5.4.8,0,.5.3.9.7,1.3.2.2.3.4.3.6,0,.4.1.7.4.9.5.5,1,.9,1.3,1.2,1.3,1.3.9,2.7,3.1,3.5.3.1.6.3.7.6.8,1.6,1.9,3.1,3.3,4.2.2.2.4.4.4.7.4,1.1,1.1,1.7,2.3,1.7.3,0,.6.2.7.5.6,1.1,1.4,1.7,2.6,1.7.3,0,.6.2.8.4,1.1,1.5,3,1.3,4.5,2.1,1.2.6,2,1,2.3,1.1,2.1.5,4.1.8,6.2,1,.3,0,.6.1.9.3.4.3.8.5,1.3.4,2.4-.1,4.5.2,6.4.8.3.1.7.1,1,0,1-.3,1.9-.3,2.6.1.3.2.6.2,1,.3l5.9.5c.2,0,.4-.1.4-.3.3-.9.8-1.6,1.7-2.1.3-.1.4-.4.5-.7.1-.5.5-.9,1-1.1.3-.1.6-.2.9-.1,2.7.3,5.3.6,8,1,.3,0,1.5.3,3.5.8,1.6.4,3.1.3,4.7.8,2.1.6,4.2.6,6.4-.1.3-.1.6-.1.9,0,1.4.5,2.8.6,4.3.3.2,0,.4-.1.5-.3.1-.1.2-.1.2-.2.1-.1.2-.1.4-.1.6.3,1.2.4,1.8.4.3,0,.5-.2.6-.5l.5-2.1.1,61c0,.7-.4,1.1-1.1,1.1-20.7.1-41.2.1-61.5,0-19.9-.1-36.4-12.2-41.3-31.3-1-4.1-1.6-10.5-1.6-19.4-.1-17.8-.2-36.2-.1-54.5Z"/>
  <path class="cls-14" d="m258.11,359.09v99.5c0,.2-.2.4-.4.4l-54.1-.1c-.4,0-.8-.3-.8-.8h0v-98.9l55.3-.1Z"/>
</svg>